ISO-10303-21;
HEADER;
/* Generated by software containing ST-Developer
 * from STEP Tools, Inc. (www.steptools.com) 
 */

FILE_DESCRIPTION(
/* description */ (''),
/* implementation_level */ '2;1');

FILE_NAME(
/* name */ 'HTU21D Breakout Board.step',
/* time_stamp */ '2026-10-03T21:41:51+01:00',
/* author */ (''),
/* organization */ (''),
/* preprocessor_version */ 'ST-DEVELOPER v20.2',
/* originating_system */ 'Autodesk Translation Framework v15.15.0.0',
/* authorisation */ '');

FILE_SCHEMA (('AUTOMOTIVE_DESIGN { 1 0 10303 214 3 1 1 }'));
ENDSEC;

DATA;
#10=MECHANICAL_DESIGN_GEOMETRIC_PRESENTATION_REPRESENTATION('',(#13,#14),
#412);
#11=SHAPE_REPRESENTATION_RELATIONSHIP('SRR','None',#419,#12);
#12=ADVANCED_BREP_SHAPE_REPRESENTATION('',(#15,#16),#411);
#13=STYLED_ITEM('',(#429),#15);
#14=STYLED_ITEM('',(#430),#16);
#15=MANIFOLD_SOLID_BREP('Body1',#247);
#16=MANIFOLD_SOLID_BREP('Body2',#248);
#17=FACE_BOUND('',#54,.T.);
#18=FACE_BOUND('',#55,.T.);
#19=FACE_BOUND('',#57,.T.);
#20=FACE_BOUND('',#58,.T.);
#21=PLANE('',#268);
#22=PLANE('',#269);
#23=PLANE('',#270);
#24=PLANE('',#271);
#25=PLANE('',#272);
#26=PLANE('',#273);
#27=PLANE('',#274);
#28=PLANE('',#275);
#29=PLANE('',#276);
#30=PLANE('',#277);
#31=PLANE('',#278);
#32=PLANE('',#279);
#33=FACE_OUTER_BOUND('',#47,.T.);
#34=FACE_OUTER_BOUND('',#48,.T.);
#35=FACE_OUTER_BOUND('',#49,.T.);
#36=FACE_OUTER_BOUND('',#50,.T.);
#37=FACE_OUTER_BOUND('',#51,.T.);
#38=FACE_OUTER_BOUND('',#52,.T.);
#39=FACE_OUTER_BOUND('',#53,.T.);
#40=FACE_OUTER_BOUND('',#56,.T.);
#41=FACE_OUTER_BOUND('',#59,.T.);
#42=FACE_OUTER_BOUND('',#60,.T.);
#43=FACE_OUTER_BOUND('',#61,.T.);
#44=FACE_OUTER_BOUND('',#62,.T.);
#45=FACE_OUTER_BOUND('',#63,.T.);
#46=FACE_OUTER_BOUND('',#64,.T.);
#47=EDGE_LOOP('',(#171,#172,#173,#174));
#48=EDGE_LOOP('',(#175,#176,#177,#178));
#49=EDGE_LOOP('',(#179,#180,#181,#182));
#50=EDGE_LOOP('',(#183,#184,#185,#186));
#51=EDGE_LOOP('',(#187,#188,#189,#190));
#52=EDGE_LOOP('',(#191,#192,#193,#194));
#53=EDGE_LOOP('',(#195,#196,#197,#198));
#54=EDGE_LOOP('',(#199));
#55=EDGE_LOOP('',(#200));
#56=EDGE_LOOP('',(#201,#202,#203,#204));
#57=EDGE_LOOP('',(#205));
#58=EDGE_LOOP('',(#206));
#59=EDGE_LOOP('',(#207,#208,#209,#210));
#60=EDGE_LOOP('',(#211,#212,#213,#214));
#61=EDGE_LOOP('',(#215,#216,#217,#218));
#62=EDGE_LOOP('',(#219,#220,#221,#222));
#63=EDGE_LOOP('',(#223,#224,#225,#226));
#64=EDGE_LOOP('',(#227,#228,#229,#230));
#65=LINE('',#349,#91);
#66=LINE('',#355,#92);
#67=LINE('',#360,#93);
#68=LINE('',#362,#94);
#69=LINE('',#364,#95);
#70=LINE('',#365,#96);
#71=LINE('',#368,#97);
#72=LINE('',#370,#98);
#73=LINE('',#371,#99);
#74=LINE('',#374,#100);
#75=LINE('',#376,#101);
#76=LINE('',#377,#102);
#77=LINE('',#379,#103);
#78=LINE('',#380,#104);
#79=LINE('',#386,#105);
#80=LINE('',#388,#106);
#81=LINE('',#390,#107);
#82=LINE('',#391,#108);
#83=LINE('',#394,#109);
#84=LINE('',#396,#110);
#85=LINE('',#397,#111);
#86=LINE('',#400,#112);
#87=LINE('',#402,#113);
#88=LINE('',#403,#114);
#89=LINE('',#405,#115);
#90=LINE('',#406,#116);
#91=VECTOR('',#286,1.75);
#92=VECTOR('',#293,1.75);
#93=VECTOR('',#298,10.);
#94=VECTOR('',#299,10.);
#95=VECTOR('',#300,10.);
#96=VECTOR('',#301,10.);
#97=VECTOR('',#304,10.);
#98=VECTOR('',#305,10.);
#99=VECTOR('',#306,10.);
#100=VECTOR('',#309,10.);
#101=VECTOR('',#310,10.);
#102=VECTOR('',#311,10.);
#103=VECTOR('',#314,10.);
#104=VECTOR('',#315,10.);
#105=VECTOR('',#322,10.);
#106=VECTOR('',#323,10.);
#107=VECTOR('',#324,10.);
#108=VECTOR('',#325,10.);
#109=VECTOR('',#328,10.);
#110=VECTOR('',#329,10.);
#111=VECTOR('',#330,10.);
#112=VECTOR('',#333,10.);
#113=VECTOR('',#334,10.);
#114=VECTOR('',#335,10.);
#115=VECTOR('',#338,10.);
#116=VECTOR('',#339,10.);
#117=CIRCLE('',#263,1.75);
#118=CIRCLE('',#264,1.75);
#119=CIRCLE('',#266,1.75);
#120=CIRCLE('',#267,1.75);
#121=VERTEX_POINT('',#346);
#122=VERTEX_POINT('',#348);
#123=VERTEX_POINT('',#352);
#124=VERTEX_POINT('',#354);
#125=VERTEX_POINT('',#358);
#126=VERTEX_POINT('',#359);
#127=VERTEX_POINT('',#361);
#128=VERTEX_POINT('',#363);
#129=VERTEX_POINT('',#367);
#130=VERTEX_POINT('',#369);
#131=VERTEX_POINT('',#373);
#132=VERTEX_POINT('',#375);
#133=VERTEX_POINT('',#384);
#134=VERTEX_POINT('',#385);
#135=VERTEX_POINT('',#387);
#136=VERTEX_POINT('',#389);
#137=VERTEX_POINT('',#393);
#138=VERTEX_POINT('',#395);
#139=VERTEX_POINT('',#399);
#140=VERTEX_POINT('',#401);
#141=EDGE_CURVE('',#121,#121,#117,.T.);
#142=EDGE_CURVE('',#121,#122,#65,.T.);
#143=EDGE_CURVE('',#122,#122,#118,.T.);
#144=EDGE_CURVE('',#123,#123,#119,.T.);
#145=EDGE_CURVE('',#123,#124,#66,.T.);
#146=EDGE_CURVE('',#124,#124,#120,.T.);
#147=EDGE_CURVE('',#125,#126,#67,.T.);
#148=EDGE_CURVE('',#126,#127,#68,.T.);
#149=EDGE_CURVE('',#128,#127,#69,.T.);
#150=EDGE_CURVE('',#125,#128,#70,.T.);
#151=EDGE_CURVE('',#129,#125,#71,.T.);
#152=EDGE_CURVE('',#130,#128,#72,.T.);
#153=EDGE_CURVE('',#129,#130,#73,.T.);
#154=EDGE_CURVE('',#131,#129,#74,.T.);
#155=EDGE_CURVE('',#132,#130,#75,.T.);
#156=EDGE_CURVE('',#131,#132,#76,.T.);
#157=EDGE_CURVE('',#126,#131,#77,.T.);
#158=EDGE_CURVE('',#127,#132,#78,.T.);
#159=EDGE_CURVE('',#133,#134,#79,.T.);
#160=EDGE_CURVE('',#134,#135,#80,.T.);
#161=EDGE_CURVE('',#136,#135,#81,.T.);
#162=EDGE_CURVE('',#133,#136,#82,.T.);
#163=EDGE_CURVE('',#137,#133,#83,.T.);
#164=EDGE_CURVE('',#138,#136,#84,.T.);
#165=EDGE_CURVE('',#137,#138,#85,.T.);
#166=EDGE_CURVE('',#139,#137,#86,.T.);
#167=EDGE_CURVE('',#140,#138,#87,.T.);
#168=EDGE_CURVE('',#139,#140,#88,.T.);
#169=EDGE_CURVE('',#134,#139,#89,.T.);
#170=EDGE_CURVE('',#135,#140,#90,.T.);
#171=ORIENTED_EDGE('',*,*,#141,.F.);
#172=ORIENTED_EDGE('',*,*,#142,.T.);
#173=ORIENTED_EDGE('',*,*,#143,.F.);
#174=ORIENTED_EDGE('',*,*,#142,.F.);
#175=ORIENTED_EDGE('',*,*,#144,.F.);
#176=ORIENTED_EDGE('',*,*,#145,.T.);
#177=ORIENTED_EDGE('',*,*,#146,.F.);
#178=ORIENTED_EDGE('',*,*,#145,.F.);
#179=ORIENTED_EDGE('',*,*,#147,.T.);
#180=ORIENTED_EDGE('',*,*,#148,.T.);
#181=ORIENTED_EDGE('',*,*,#149,.F.);
#182=ORIENTED_EDGE('',*,*,#150,.F.);
#183=ORIENTED_EDGE('',*,*,#151,.T.);
#184=ORIENTED_EDGE('',*,*,#150,.T.);
#185=ORIENTED_EDGE('',*,*,#152,.F.);
#186=ORIENTED_EDGE('',*,*,#153,.F.);
#187=ORIENTED_EDGE('',*,*,#154,.T.);
#188=ORIENTED_EDGE('',*,*,#153,.T.);
#189=ORIENTED_EDGE('',*,*,#155,.F.);
#190=ORIENTED_EDGE('',*,*,#156,.F.);
#191=ORIENTED_EDGE('',*,*,#157,.T.);
#192=ORIENTED_EDGE('',*,*,#156,.T.);
#193=ORIENTED_EDGE('',*,*,#158,.F.);
#194=ORIENTED_EDGE('',*,*,#148,.F.);
#195=ORIENTED_EDGE('',*,*,#158,.T.);
#196=ORIENTED_EDGE('',*,*,#155,.T.);
#197=ORIENTED_EDGE('',*,*,#152,.T.);
#198=ORIENTED_EDGE('',*,*,#149,.T.);
#199=ORIENTED_EDGE('',*,*,#141,.T.);
#200=ORIENTED_EDGE('',*,*,#144,.T.);
#201=ORIENTED_EDGE('',*,*,#157,.F.);
#202=ORIENTED_EDGE('',*,*,#147,.F.);
#203=ORIENTED_EDGE('',*,*,#151,.F.);
#204=ORIENTED_EDGE('',*,*,#154,.F.);
#205=ORIENTED_EDGE('',*,*,#143,.T.);
#206=ORIENTED_EDGE('',*,*,#146,.T.);
#207=ORIENTED_EDGE('',*,*,#159,.T.);
#208=ORIENTED_EDGE('',*,*,#160,.T.);
#209=ORIENTED_EDGE('',*,*,#161,.F.);
#210=ORIENTED_EDGE('',*,*,#162,.F.);
#211=ORIENTED_EDGE('',*,*,#163,.T.);
#212=ORIENTED_EDGE('',*,*,#162,.T.);
#213=ORIENTED_EDGE('',*,*,#164,.F.);
#214=ORIENTED_EDGE('',*,*,#165,.F.);
#215=ORIENTED_EDGE('',*,*,#166,.T.);
#216=ORIENTED_EDGE('',*,*,#165,.T.);
#217=ORIENTED_EDGE('',*,*,#167,.F.);
#218=ORIENTED_EDGE('',*,*,#168,.F.);
#219=ORIENTED_EDGE('',*,*,#169,.T.);
#220=ORIENTED_EDGE('',*,*,#168,.T.);
#221=ORIENTED_EDGE('',*,*,#170,.F.);
#222=ORIENTED_EDGE('',*,*,#160,.F.);
#223=ORIENTED_EDGE('',*,*,#170,.T.);
#224=ORIENTED_EDGE('',*,*,#167,.T.);
#225=ORIENTED_EDGE('',*,*,#164,.T.);
#226=ORIENTED_EDGE('',*,*,#161,.T.);
#227=ORIENTED_EDGE('',*,*,#169,.F.);
#228=ORIENTED_EDGE('',*,*,#159,.F.);
#229=ORIENTED_EDGE('',*,*,#163,.F.);
#230=ORIENTED_EDGE('',*,*,#166,.F.);
#231=CYLINDRICAL_SURFACE('',#262,1.75);
#232=CYLINDRICAL_SURFACE('',#265,1.75);
#233=ADVANCED_FACE('',(#33),#231,.F.);
#234=ADVANCED_FACE('',(#34),#232,.F.);
#235=ADVANCED_FACE('',(#35),#21,.T.);
#236=ADVANCED_FACE('',(#36),#22,.T.);
#237=ADVANCED_FACE('',(#37),#23,.T.);
#238=ADVANCED_FACE('',(#38),#24,.T.);
#239=ADVANCED_FACE('',(#39,#17,#18),#25,.T.);
#240=ADVANCED_FACE('',(#40,#19,#20),#26,.F.);
#241=ADVANCED_FACE('',(#41),#27,.T.);
#242=ADVANCED_FACE('',(#42),#28,.T.);
#243=ADVANCED_FACE('',(#43),#29,.T.);
#244=ADVANCED_FACE('',(#44),#30,.T.);
#245=ADVANCED_FACE('',(#45),#31,.T.);
#246=ADVANCED_FACE('',(#46),#32,.F.);
#247=CLOSED_SHELL('',(#233,#234,#235,#236,#237,#238,#239,#240));
#248=CLOSED_SHELL('',(#241,#242,#243,#244,#245,#246));
#249=DERIVED_UNIT_ELEMENT(#251,1.);
#250=DERIVED_UNIT_ELEMENT(#414,-3.);
#251=(
MASS_UNIT()
NAMED_UNIT(*)
SI_UNIT(.KILO.,.GRAM.)
);
#252=DERIVED_UNIT((#249,#250));
#253=MEASURE_REPRESENTATION_ITEM('density measure',
POSITIVE_RATIO_MEASURE(7850.),#252);
#254=PROPERTY_DEFINITION_REPRESENTATION(#259,#256);
#255=PROPERTY_DEFINITION_REPRESENTATION(#260,#257);
#256=REPRESENTATION('material name',(#258),#411);
#257=REPRESENTATION('density',(#253),#411);
#258=DESCRIPTIVE_REPRESENTATION_ITEM('Steel','Steel');
#259=PROPERTY_DEFINITION('material property','material name',#421);
#260=PROPERTY_DEFINITION('material property','density of part',#421);
#261=AXIS2_PLACEMENT_3D('',#344,#280,#281);
#262=AXIS2_PLACEMENT_3D('',#345,#282,#283);
#263=AXIS2_PLACEMENT_3D('',#347,#284,#285);
#264=AXIS2_PLACEMENT_3D('',#350,#287,#288);
#265=AXIS2_PLACEMENT_3D('',#351,#289,#290);
#266=AXIS2_PLACEMENT_3D('',#353,#291,#292);
#267=AXIS2_PLACEMENT_3D('',#356,#294,#295);
#268=AXIS2_PLACEMENT_3D('',#357,#296,#297);
#269=AXIS2_PLACEMENT_3D('',#366,#302,#303);
#270=AXIS2_PLACEMENT_3D('',#372,#307,#308);
#271=AXIS2_PLACEMENT_3D('',#378,#312,#313);
#272=AXIS2_PLACEMENT_3D('',#381,#316,#317);
#273=AXIS2_PLACEMENT_3D('',#382,#318,#319);
#274=AXIS2_PLACEMENT_3D('',#383,#320,#321);
#275=AXIS2_PLACEMENT_3D('',#392,#326,#327);
#276=AXIS2_PLACEMENT_3D('',#398,#331,#332);
#277=AXIS2_PLACEMENT_3D('',#404,#336,#337);
#278=AXIS2_PLACEMENT_3D('',#407,#340,#341);
#279=AXIS2_PLACEMENT_3D('',#408,#342,#343);
#280=DIRECTION('axis',(0.,0.,1.));
#281=DIRECTION('refdir',(1.,0.,0.));
#282=DIRECTION('center_axis',(0.,-1.,0.));
#283=DIRECTION('ref_axis',(0.,0.,1.));
#284=DIRECTION('center_axis',(0.,-1.,0.));
#285=DIRECTION('ref_axis',(0.,0.,1.));
#286=DIRECTION('',(0.,-1.,0.));
#287=DIRECTION('center_axis',(0.,1.,0.));
#288=DIRECTION('ref_axis',(0.,0.,1.));
#289=DIRECTION('center_axis',(0.,-1.,0.));
#290=DIRECTION('ref_axis',(0.,0.,1.));
#291=DIRECTION('center_axis',(0.,-1.,0.));
#292=DIRECTION('ref_axis',(0.,0.,1.));
#293=DIRECTION('',(0.,-1.,0.));
#294=DIRECTION('center_axis',(0.,1.,0.));
#295=DIRECTION('ref_axis',(0.,0.,1.));
#296=DIRECTION('center_axis',(0.,0.,1.));
#297=DIRECTION('ref_axis',(1.,0.,0.));
#298=DIRECTION('',(1.,0.,0.));
#299=DIRECTION('',(0.,1.,0.));
#300=DIRECTION('',(1.,0.,0.));
#301=DIRECTION('',(0.,1.,0.));
#302=DIRECTION('center_axis',(-1.,0.,0.));
#303=DIRECTION('ref_axis',(0.,0.,1.));
#304=DIRECTION('',(0.,0.,1.));
#305=DIRECTION('',(0.,0.,1.));
#306=DIRECTION('',(0.,1.,0.));
#307=DIRECTION('center_axis',(0.,0.,-1.));
#308=DIRECTION('ref_axis',(-1.,0.,0.));
#309=DIRECTION('',(-1.,0.,0.));
#310=DIRECTION('',(-1.,0.,0.));
#311=DIRECTION('',(0.,1.,0.));
#312=DIRECTION('center_axis',(1.,0.,0.));
#313=DIRECTION('ref_axis',(0.,0.,-1.));
#314=DIRECTION('',(0.,0.,-1.));
#315=DIRECTION('',(0.,0.,-1.));
#316=DIRECTION('center_axis',(0.,1.,0.));
#317=DIRECTION('ref_axis',(0.,0.,1.));
#318=DIRECTION('center_axis',(0.,1.,0.));
#319=DIRECTION('ref_axis',(1.,0.,0.));
#320=DIRECTION('center_axis',(0.,0.,1.));
#321=DIRECTION('ref_axis',(1.,0.,0.));
#322=DIRECTION('',(1.,0.,0.));
#323=DIRECTION('',(0.,1.,0.));
#324=DIRECTION('',(1.,0.,0.));
#325=DIRECTION('',(0.,1.,0.));
#326=DIRECTION('center_axis',(-1.,0.,0.));
#327=DIRECTION('ref_axis',(0.,0.,1.));
#328=DIRECTION('',(0.,0.,1.));
#329=DIRECTION('',(0.,0.,1.));
#330=DIRECTION('',(0.,1.,0.));
#331=DIRECTION('center_axis',(0.,0.,-1.));
#332=DIRECTION('ref_axis',(-1.,0.,0.));
#333=DIRECTION('',(-1.,0.,0.));
#334=DIRECTION('',(-1.,0.,0.));
#335=DIRECTION('',(0.,1.,0.));
#336=DIRECTION('center_axis',(1.,0.,0.));
#337=DIRECTION('ref_axis',(0.,0.,-1.));
#338=DIRECTION('',(0.,0.,-1.));
#339=DIRECTION('',(0.,0.,-1.));
#340=DIRECTION('center_axis',(0.,1.,0.));
#341=DIRECTION('ref_axis',(0.,0.,1.));
#342=DIRECTION('center_axis',(0.,1.,0.));
#343=DIRECTION('ref_axis',(-1.,0.,0.));
#344=CARTESIAN_POINT('',(0.,0.,0.));
#345=CARTESIAN_POINT('Origin',(5.5,-0.25,5.5));
#346=CARTESIAN_POINT('',(5.5,1.5,3.75));
#347=CARTESIAN_POINT('Origin',(5.5,1.5,5.5));
#348=CARTESIAN_POINT('',(5.5,0.,3.75));
#349=CARTESIAN_POINT('',(5.5,-0.25,3.75));
#350=CARTESIAN_POINT('Origin',(5.5,0.,5.5));
#351=CARTESIAN_POINT('Origin',(-5.5,-0.25,5.5));
#352=CARTESIAN_POINT('',(-5.5,1.5,3.75));
#353=CARTESIAN_POINT('Origin',(-5.5,1.5,5.5));
#354=CARTESIAN_POINT('',(-5.5,0.,3.75));
#355=CARTESIAN_POINT('',(-5.5,-0.25,3.75));
#356=CARTESIAN_POINT('Origin',(-5.5,0.,5.5));
#357=CARTESIAN_POINT('Origin',(-7.65,0.,7.65));
#358=CARTESIAN_POINT('',(-7.65,0.,7.65));
#359=CARTESIAN_POINT('',(7.65,0.,7.65));
#360=CARTESIAN_POINT('',(-7.65,0.,7.65));
#361=CARTESIAN_POINT('',(7.65,1.5,7.65));
#362=CARTESIAN_POINT('',(7.65,0.,7.65));
#363=CARTESIAN_POINT('',(-7.65,1.5,7.65));
#364=CARTESIAN_POINT('',(-7.65,1.5,7.65));
#365=CARTESIAN_POINT('',(-7.65,0.,7.65));
#366=CARTESIAN_POINT('Origin',(-7.65,0.,-7.65));
#367=CARTESIAN_POINT('',(-7.65,0.,-7.65));
#368=CARTESIAN_POINT('',(-7.65,0.,-7.65));
#369=CARTESIAN_POINT('',(-7.65,1.5,-7.65));
#370=CARTESIAN_POINT('',(-7.65,1.5,-7.65));
#371=CARTESIAN_POINT('',(-7.65,0.,-7.65));
#372=CARTESIAN_POINT('Origin',(7.65,0.,-7.65));
#373=CARTESIAN_POINT('',(7.65,0.,-7.65));
#374=CARTESIAN_POINT('',(7.65,0.,-7.65));
#375=CARTESIAN_POINT('',(7.65,1.5,-7.65));
#376=CARTESIAN_POINT('',(7.65,1.5,-7.65));
#377=CARTESIAN_POINT('',(7.65,0.,-7.65));
#378=CARTESIAN_POINT('Origin',(7.65,0.,7.65));
#379=CARTESIAN_POINT('',(7.65,0.,7.65));
#380=CARTESIAN_POINT('',(7.65,1.5,7.65));
#381=CARTESIAN_POINT('Origin',(0.,1.5,0.));
#382=CARTESIAN_POINT('Origin',(0.,0.,0.));
#383=CARTESIAN_POINT('Origin',(-1.5,1.5,4.65));
#384=CARTESIAN_POINT('',(-1.5,1.5,4.65));
#385=CARTESIAN_POINT('',(1.5,1.5,4.65));
#386=CARTESIAN_POINT('',(-1.5,1.5,4.65));
#387=CARTESIAN_POINT('',(1.5,2.3,4.65));
#388=CARTESIAN_POINT('',(1.5,1.5,4.65));
#389=CARTESIAN_POINT('',(-1.5,2.3,4.65));
#390=CARTESIAN_POINT('',(-1.5,2.3,4.65));
#391=CARTESIAN_POINT('',(-1.5,1.5,4.65));
#392=CARTESIAN_POINT('Origin',(-1.5,1.5,1.65));
#393=CARTESIAN_POINT('',(-1.5,1.5,1.65));
#394=CARTESIAN_POINT('',(-1.5,1.5,1.65));
#395=CARTESIAN_POINT('',(-1.5,2.3,1.65));
#396=CARTESIAN_POINT('',(-1.5,2.3,1.65));
#397=CARTESIAN_POINT('',(-1.5,1.5,1.65));
#398=CARTESIAN_POINT('Origin',(1.5,1.5,1.65));
#399=CARTESIAN_POINT('',(1.5,1.5,1.65));
#400=CARTESIAN_POINT('',(1.5,1.5,1.65));
#401=CARTESIAN_POINT('',(1.5,2.3,1.65));
#402=CARTESIAN_POINT('',(1.5,2.3,1.65));
#403=CARTESIAN_POINT('',(1.5,1.5,1.65));
#404=CARTESIAN_POINT('Origin',(1.5,1.5,4.65));
#405=CARTESIAN_POINT('',(1.5,1.5,4.65));
#406=CARTESIAN_POINT('',(1.5,2.3,4.65));
#407=CARTESIAN_POINT('Origin',(0.,2.3,3.15));
#408=CARTESIAN_POINT('Origin',(0.,1.5,3.15));
#409=UNCERTAINTY_MEASURE_WITH_UNIT(LENGTH_MEASURE(0.01),#413,
'DISTANCE_ACCURACY_VALUE',
'Maximum model space distance between geometric entities at asserted c
onnectivities');
#410=UNCERTAINTY_MEASURE_WITH_UNIT(LENGTH_MEASURE(0.01),#413,
'DISTANCE_ACCURACY_VALUE',
'Maximum model space distance between geometric entities at asserted c
onnectivities');
#411=(
GEOMETRIC_REPRESENTATION_CONTEXT(3)
GLOBAL_UNCERTAINTY_ASSIGNED_CONTEXT((#409))
GLOBAL_UNIT_ASSIGNED_CONTEXT((#413,#415,#416))
REPRESENTATION_CONTEXT('','3D')
);
#412=(
GEOMETRIC_REPRESENTATION_CONTEXT(3)
GLOBAL_UNCERTAINTY_ASSIGNED_CONTEXT((#410))
GLOBAL_UNIT_ASSIGNED_CONTEXT((#413,#415,#416))
REPRESENTATION_CONTEXT('','3D')
);
#413=(
LENGTH_UNIT()
NAMED_UNIT(*)
SI_UNIT(.MILLI.,.METRE.)
);
#414=(
LENGTH_UNIT()
NAMED_UNIT(*)
SI_UNIT($,.METRE.)
);
#415=(
NAMED_UNIT(*)
PLANE_ANGLE_UNIT()
SI_UNIT($,.RADIAN.)
);
#416=(
NAMED_UNIT(*)
SI_UNIT($,.STERADIAN.)
SOLID_ANGLE_UNIT()
);
#417=SHAPE_DEFINITION_REPRESENTATION(#418,#419);
#418=PRODUCT_DEFINITION_SHAPE('',$,#421);
#419=SHAPE_REPRESENTATION('',(#261),#411);
#420=PRODUCT_DEFINITION_CONTEXT('part definition',#425,'design');
#421=PRODUCT_DEFINITION('2026-08-16-16-12-45-411',
'HTU21D Temperature & Humidity Sensor',#422,#420);
#422=PRODUCT_DEFINITION_FORMATION('',$,#427);
#423=PRODUCT_RELATED_PRODUCT_CATEGORY(
'HTU21D Temperature & Humidity Sensor',
'HTU21D Temperature & Humidity Sensor',(#427));
#424=APPLICATION_PROTOCOL_DEFINITION('international standard',
'automotive_design',2009,#425);
#425=APPLICATION_CONTEXT(
'Core Data for Automotive Mechanical Design Process');
#426=PRODUCT_CONTEXT('part definition',#425,'mechanical');
#427=PRODUCT('2026-08-16-16-12-45-411',
'HTU21D Temperature & Humidity Sensor',$,(#426));
#428=PRESENTATION_STYLE_ASSIGNMENT((#431));
#429=PRESENTATION_STYLE_ASSIGNMENT((#432));
#430=PRESENTATION_STYLE_ASSIGNMENT((#433));
#431=SURFACE_STYLE_USAGE(.BOTH.,#434);
#432=SURFACE_STYLE_USAGE(.BOTH.,#435);
#433=SURFACE_STYLE_USAGE(.BOTH.,#436);
#434=SURFACE_SIDE_STYLE('',(#437));
#435=SURFACE_SIDE_STYLE('',(#438));
#436=SURFACE_SIDE_STYLE('',(#439));
#437=SURFACE_STYLE_FILL_AREA(#440);
#438=SURFACE_STYLE_FILL_AREA(#441);
#439=SURFACE_STYLE_FILL_AREA(#442);
#440=FILL_AREA_STYLE('Steel - Satin',(#443));
#441=FILL_AREA_STYLE('Paint - Enamel Glossy (Blue)',(#444));
#442=FILL_AREA_STYLE('Paint - Enamel Glossy (Black)',(#445));
#443=FILL_AREA_STYLE_COLOUR('Steel - Satin',#446);
#444=FILL_AREA_STYLE_COLOUR('Paint - Enamel Glossy (Blue)',#447);
#445=FILL_AREA_STYLE_COLOUR('Paint - Enamel Glossy (Black)',#448);
#446=COLOUR_RGB('Steel - Satin',0.627450980392157,0.627450980392157,0.627450980392157);
#447=COLOUR_RGB('Paint - Enamel Glossy (Blue)',0.188235294117647,0.231372549019608,
0.588235294117647);
#448=COLOUR_RGB('Paint - Enamel Glossy (Black)',0.0980392156862745,0.0980392156862745,
0.0980392156862745);
ENDSEC;
END-ISO-10303-21;
