ISO-10303-21;
HEADER;
/* Generated by software containing ST-Developer
 * from STEP Tools, Inc. (www.steptools.com) 
 */

FILE_DESCRIPTION(
/* description */ (''),
/* implementation_level */ '2;1');

FILE_NAME(
/* name */ 'LinearSwitch.step',
/* time_stamp */ '2026-10-03T21:34:49+01:00',
/* author */ (''),
/* organization */ (''),
/* preprocessor_version */ 'ST-DEVELOPER v20.2',
/* originating_system */ 'Autodesk Translation Framework v15.15.0.0',
/* authorisation */ '');

FILE_SCHEMA (('AUTOMOTIVE_DESIGN { 1 0 10303 214 3 1 1 }'));
ENDSEC;

DATA;
#10=MECHANICAL_DESIGN_GEOMETRIC_PRESENTATION_REPRESENTATION('',(#18,#19,
#20,#21,#22,#23,#24,#25,#26,#27,#28,#29,#30,#31,#32,#33,#34,#35,#36,#37,
#38,#39,#40),#1427);
#11=SHAPE_REPRESENTATION_RELATIONSHIP('SRR','None',#1434,#12);
#12=ADVANCED_BREP_SHAPE_REPRESENTATION('',(#13),#1426);
#13=MANIFOLD_SOLID_BREP('Body1',#897);
#14=FACE_BOUND('',#132,.T.);
#15=FACE_BOUND('',#133,.T.);
#16=FACE_BOUND('',#134,.T.);
#17=FACE_BOUND('',#139,.T.);
#18=STYLED_ITEM('',(#1445),#858);
#19=STYLED_ITEM('',(#1445),#859);
#20=STYLED_ITEM('',(#1445),#860);
#21=STYLED_ITEM('',(#1445),#861);
#22=STYLED_ITEM('',(#1445),#862);
#23=STYLED_ITEM('',(#1445),#865);
#24=STYLED_ITEM('',(#1445),#866);
#25=STYLED_ITEM('',(#1445),#867);
#26=STYLED_ITEM('',(#1445),#879);
#27=STYLED_ITEM('',(#1446),#884);
#28=STYLED_ITEM('',(#1446),#885);
#29=STYLED_ITEM('',(#1446),#886);
#30=STYLED_ITEM('',(#1446),#887);
#31=STYLED_ITEM('',(#1446),#888);
#32=STYLED_ITEM('',(#1446),#889);
#33=STYLED_ITEM('',(#1446),#890);
#34=STYLED_ITEM('',(#1446),#891);
#35=STYLED_ITEM('',(#1446),#892);
#36=STYLED_ITEM('',(#1446),#893);
#37=STYLED_ITEM('',(#1446),#894);
#38=STYLED_ITEM('',(#1446),#895);
#39=STYLED_ITEM('',(#1446),#896);
#40=STYLED_ITEM('',(#1444),#13);
#41=FACE_OUTER_BOUND('',#95,.T.);
#42=FACE_OUTER_BOUND('',#96,.T.);
#43=FACE_OUTER_BOUND('',#97,.T.);
#44=FACE_OUTER_BOUND('',#98,.T.);
#45=FACE_OUTER_BOUND('',#99,.T.);
#46=FACE_OUTER_BOUND('',#100,.T.);
#47=FACE_OUTER_BOUND('',#101,.T.);
#48=FACE_OUTER_BOUND('',#102,.T.);
#49=FACE_OUTER_BOUND('',#103,.T.);
#50=FACE_OUTER_BOUND('',#104,.T.);
#51=FACE_OUTER_BOUND('',#105,.T.);
#52=FACE_OUTER_BOUND('',#106,.T.);
#53=FACE_OUTER_BOUND('',#107,.T.);
#54=FACE_OUTER_BOUND('',#108,.T.);
#55=FACE_OUTER_BOUND('',#109,.T.);
#56=FACE_OUTER_BOUND('',#110,.T.);
#57=FACE_OUTER_BOUND('',#111,.T.);
#58=FACE_OUTER_BOUND('',#112,.T.);
#59=FACE_OUTER_BOUND('',#113,.T.);
#60=FACE_OUTER_BOUND('',#114,.T.);
#61=FACE_OUTER_BOUND('',#115,.T.);
#62=FACE_OUTER_BOUND('',#116,.T.);
#63=FACE_OUTER_BOUND('',#117,.T.);
#64=FACE_OUTER_BOUND('',#118,.T.);
#65=FACE_OUTER_BOUND('',#119,.T.);
#66=FACE_OUTER_BOUND('',#120,.T.);
#67=FACE_OUTER_BOUND('',#121,.T.);
#68=FACE_OUTER_BOUND('',#122,.T.);
#69=FACE_OUTER_BOUND('',#123,.T.);
#70=FACE_OUTER_BOUND('',#124,.T.);
#71=FACE_OUTER_BOUND('',#125,.T.);
#72=FACE_OUTER_BOUND('',#126,.T.);
#73=FACE_OUTER_BOUND('',#127,.T.);
#74=FACE_OUTER_BOUND('',#128,.T.);
#75=FACE_OUTER_BOUND('',#129,.T.);
#76=FACE_OUTER_BOUND('',#130,.T.);
#77=FACE_OUTER_BOUND('',#131,.T.);
#78=FACE_OUTER_BOUND('',#135,.T.);
#79=FACE_OUTER_BOUND('',#136,.T.);
#80=FACE_OUTER_BOUND('',#137,.T.);
#81=FACE_OUTER_BOUND('',#138,.T.);
#82=FACE_OUTER_BOUND('',#140,.T.);
#83=FACE_OUTER_BOUND('',#141,.T.);
#84=FACE_OUTER_BOUND('',#142,.T.);
#85=FACE_OUTER_BOUND('',#143,.T.);
#86=FACE_OUTER_BOUND('',#144,.T.);
#87=FACE_OUTER_BOUND('',#145,.T.);
#88=FACE_OUTER_BOUND('',#146,.T.);
#89=FACE_OUTER_BOUND('',#147,.T.);
#90=FACE_OUTER_BOUND('',#148,.T.);
#91=FACE_OUTER_BOUND('',#149,.T.);
#92=FACE_OUTER_BOUND('',#150,.T.);
#93=FACE_OUTER_BOUND('',#151,.T.);
#94=FACE_OUTER_BOUND('',#152,.T.);
#95=EDGE_LOOP('',(#561,#562,#563,#564));
#96=EDGE_LOOP('',(#565,#566,#567,#568));
#97=EDGE_LOOP('',(#569,#570,#571,#572));
#98=EDGE_LOOP('',(#573,#574,#575,#576));
#99=EDGE_LOOP('',(#577,#578,#579,#580));
#100=EDGE_LOOP('',(#581,#582,#583,#584));
#101=EDGE_LOOP('',(#585,#586,#587,#588));
#102=EDGE_LOOP('',(#589,#590,#591,#592));
#103=EDGE_LOOP('',(#593,#594,#595,#596));
#104=EDGE_LOOP('',(#597,#598,#599,#600));
#105=EDGE_LOOP('',(#601,#602,#603,#604));
#106=EDGE_LOOP('',(#605,#606,#607,#608));
#107=EDGE_LOOP('',(#609,#610,#611,#612));
#108=EDGE_LOOP('',(#613,#614,#615,#616));
#109=EDGE_LOOP('',(#617,#618,#619,#620));
#110=EDGE_LOOP('',(#621,#622,#623));
#111=EDGE_LOOP('',(#624,#625,#626));
#112=EDGE_LOOP('',(#627,#628,#629,#630));
#113=EDGE_LOOP('',(#631,#632,#633));
#114=EDGE_LOOP('',(#634,#635,#636,#637));
#115=EDGE_LOOP('',(#638,#639,#640));
#116=EDGE_LOOP('',(#641,#642,#643,#644));
#117=EDGE_LOOP('',(#645,#646,#647));
#118=EDGE_LOOP('',(#648,#649,#650,#651));
#119=EDGE_LOOP('',(#652,#653,#654,#655));
#120=EDGE_LOOP('',(#656,#657,#658));
#121=EDGE_LOOP('',(#659,#660,#661,#662));
#122=EDGE_LOOP('',(#663,#664,#665));
#123=EDGE_LOOP('',(#666,#667,#668,#669));
#124=EDGE_LOOP('',(#670,#671,#672,#673));
#125=EDGE_LOOP('',(#674,#675,#676));
#126=EDGE_LOOP('',(#677,#678,#679,#680));
#127=EDGE_LOOP('',(#681,#682,#683,#684));
#128=EDGE_LOOP('',(#685,#686,#687,#688));
#129=EDGE_LOOP('',(#689,#690,#691,#692));
#130=EDGE_LOOP('',(#693,#694,#695,#696));
#131=EDGE_LOOP('',(#697,#698,#699,#700));
#132=EDGE_LOOP('',(#701,#702,#703,#704));
#133=EDGE_LOOP('',(#705,#706,#707,#708));
#134=EDGE_LOOP('',(#709,#710,#711,#712));
#135=EDGE_LOOP('',(#713,#714,#715,#716));
#136=EDGE_LOOP('',(#717,#718,#719,#720));
#137=EDGE_LOOP('',(#721,#722,#723,#724));
#138=EDGE_LOOP('',(#725,#726,#727,#728));
#139=EDGE_LOOP('',(#729,#730,#731,#732,#733,#734));
#140=EDGE_LOOP('',(#735,#736,#737,#738));
#141=EDGE_LOOP('',(#739,#740,#741,#742));
#142=EDGE_LOOP('',(#743,#744,#745,#746));
#143=EDGE_LOOP('',(#747,#748,#749,#750));
#144=EDGE_LOOP('',(#751,#752,#753,#754,#755,#756));
#145=EDGE_LOOP('',(#757,#758,#759,#760));
#146=EDGE_LOOP('',(#761,#762,#763,#764));
#147=EDGE_LOOP('',(#765,#766,#767,#768));
#148=EDGE_LOOP('',(#769,#770,#771,#772));
#149=EDGE_LOOP('',(#773,#774,#775,#776));
#150=EDGE_LOOP('',(#777,#778,#779,#780));
#151=EDGE_LOOP('',(#781,#782,#783,#784));
#152=EDGE_LOOP('',(#785,#786,#787,#788));
#153=LINE('',#1193,#267);
#154=LINE('',#1195,#268);
#155=LINE('',#1197,#269);
#156=LINE('',#1198,#270);
#157=LINE('',#1201,#271);
#158=LINE('',#1203,#272);
#159=LINE('',#1204,#273);
#160=LINE('',#1207,#274);
#161=LINE('',#1209,#275);
#162=LINE('',#1210,#276);
#163=LINE('',#1212,#277);
#164=LINE('',#1213,#278);
#165=LINE('',#1218,#279);
#166=LINE('',#1220,#280);
#167=LINE('',#1222,#281);
#168=LINE('',#1223,#282);
#169=LINE('',#1226,#283);
#170=LINE('',#1228,#284);
#171=LINE('',#1229,#285);
#172=LINE('',#1232,#286);
#173=LINE('',#1234,#287);
#174=LINE('',#1235,#288);
#175=LINE('',#1237,#289);
#176=LINE('',#1238,#290);
#177=LINE('',#1243,#291);
#178=LINE('',#1245,#292);
#179=LINE('',#1247,#293);
#180=LINE('',#1248,#294);
#181=LINE('',#1251,#295);
#182=LINE('',#1253,#296);
#183=LINE('',#1254,#297);
#184=LINE('',#1257,#298);
#185=LINE('',#1259,#299);
#186=LINE('',#1260,#300);
#187=LINE('',#1262,#301);
#188=LINE('',#1263,#302);
#189=LINE('',#1268,#303);
#190=LINE('',#1270,#304);
#191=LINE('',#1271,#305);
#192=LINE('',#1275,#306);
#193=LINE('',#1277,#307);
#194=LINE('',#1278,#308);
#195=LINE('',#1280,#309);
#196=LINE('',#1281,#310);
#197=LINE('',#1285,#311);
#198=LINE('',#1287,#312);
#199=LINE('',#1288,#313);
#200=LINE('',#1290,#314);
#201=LINE('',#1291,#315);
#202=LINE('',#1295,#316);
#203=LINE('',#1297,#317);
#204=LINE('',#1298,#318);
#205=LINE('',#1300,#319);
#206=LINE('',#1301,#320);
#207=LINE('',#1305,#321);
#208=LINE('',#1307,#322);
#209=LINE('',#1308,#323);
#210=LINE('',#1310,#324);
#211=LINE('',#1311,#325);
#212=LINE('',#1313,#326);
#213=LINE('',#1314,#327);
#214=LINE('',#1318,#328);
#215=LINE('',#1320,#329);
#216=LINE('',#1321,#330);
#217=LINE('',#1323,#331);
#218=LINE('',#1324,#332);
#219=LINE('',#1328,#333);
#220=LINE('',#1330,#334);
#221=LINE('',#1331,#335);
#222=LINE('',#1333,#336);
#223=LINE('',#1334,#337);
#224=LINE('',#1336,#338);
#225=LINE('',#1337,#339);
#226=LINE('',#1341,#340);
#227=LINE('',#1343,#341);
#228=LINE('',#1344,#342);
#229=LINE('',#1346,#343);
#230=LINE('',#1347,#344);
#231=LINE('',#1349,#345);
#232=LINE('',#1350,#346);
#233=LINE('',#1352,#347);
#234=LINE('',#1353,#348);
#235=LINE('',#1355,#349);
#236=LINE('',#1356,#350);
#237=LINE('',#1365,#351);
#238=LINE('',#1367,#352);
#239=LINE('',#1369,#353);
#240=LINE('',#1371,#354);
#241=LINE('',#1373,#355);
#242=LINE('',#1374,#356);
#243=LINE('',#1378,#357);
#244=LINE('',#1380,#358);
#245=LINE('',#1382,#359);
#246=LINE('',#1383,#360);
#247=LINE('',#1386,#361);
#248=LINE('',#1388,#362);
#249=LINE('',#1389,#363);
#250=LINE('',#1392,#364);
#251=LINE('',#1394,#365);
#252=LINE('',#1395,#366);
#253=LINE('',#1397,#367);
#254=LINE('',#1398,#368);
#255=LINE('',#1400,#369);
#256=LINE('',#1402,#370);
#257=LINE('',#1404,#371);
#258=LINE('',#1405,#372);
#259=LINE('',#1406,#373);
#260=LINE('',#1408,#374);
#261=LINE('',#1411,#375);
#262=LINE('',#1415,#376);
#263=LINE('',#1417,#377);
#264=LINE('',#1418,#378);
#265=LINE('',#1420,#379);
#266=LINE('',#1422,#380);
#267=VECTOR('',#969,10.);
#268=VECTOR('',#970,10.);
#269=VECTOR('',#971,10.);
#270=VECTOR('',#972,10.);
#271=VECTOR('',#975,10.);
#272=VECTOR('',#976,10.);
#273=VECTOR('',#977,10.);
#274=VECTOR('',#980,10.);
#275=VECTOR('',#981,10.);
#276=VECTOR('',#982,10.);
#277=VECTOR('',#985,10.);
#278=VECTOR('',#986,10.);
#279=VECTOR('',#991,10.);
#280=VECTOR('',#992,10.);
#281=VECTOR('',#993,10.);
#282=VECTOR('',#994,10.);
#283=VECTOR('',#997,10.);
#284=VECTOR('',#998,10.);
#285=VECTOR('',#999,10.);
#286=VECTOR('',#1002,10.);
#287=VECTOR('',#1003,10.);
#288=VECTOR('',#1004,10.);
#289=VECTOR('',#1007,10.);
#290=VECTOR('',#1008,10.);
#291=VECTOR('',#1013,10.);
#292=VECTOR('',#1014,10.);
#293=VECTOR('',#1015,10.);
#294=VECTOR('',#1016,10.);
#295=VECTOR('',#1019,10.);
#296=VECTOR('',#1020,10.);
#297=VECTOR('',#1021,10.);
#298=VECTOR('',#1024,10.);
#299=VECTOR('',#1025,10.);
#300=VECTOR('',#1026,10.);
#301=VECTOR('',#1029,10.);
#302=VECTOR('',#1030,10.);
#303=VECTOR('',#1035,10.);
#304=VECTOR('',#1036,10.);
#305=VECTOR('',#1037,10.);
#306=VECTOR('',#1040,10.);
#307=VECTOR('',#1041,10.);
#308=VECTOR('',#1042,10.);
#309=VECTOR('',#1045,10.);
#310=VECTOR('',#1046,10.);
#311=VECTOR('',#1049,10.);
#312=VECTOR('',#1050,10.);
#313=VECTOR('',#1051,10.);
#314=VECTOR('',#1054,10.);
#315=VECTOR('',#1055,10.);
#316=VECTOR('',#1058,10.);
#317=VECTOR('',#1059,10.);
#318=VECTOR('',#1060,10.);
#319=VECTOR('',#1063,10.);
#320=VECTOR('',#1064,10.);
#321=VECTOR('',#1067,10.);
#322=VECTOR('',#1068,10.);
#323=VECTOR('',#1069,10.);
#324=VECTOR('',#1072,10.);
#325=VECTOR('',#1073,10.);
#326=VECTOR('',#1076,10.);
#327=VECTOR('',#1077,10.);
#328=VECTOR('',#1080,10.);
#329=VECTOR('',#1081,10.);
#330=VECTOR('',#1082,10.);
#331=VECTOR('',#1085,10.);
#332=VECTOR('',#1086,10.);
#333=VECTOR('',#1089,10.);
#334=VECTOR('',#1090,10.);
#335=VECTOR('',#1091,10.);
#336=VECTOR('',#1094,10.);
#337=VECTOR('',#1095,10.);
#338=VECTOR('',#1098,10.);
#339=VECTOR('',#1099,10.);
#340=VECTOR('',#1102,10.);
#341=VECTOR('',#1103,10.);
#342=VECTOR('',#1104,10.);
#343=VECTOR('',#1107,10.);
#344=VECTOR('',#1108,10.);
#345=VECTOR('',#1111,10.);
#346=VECTOR('',#1112,10.);
#347=VECTOR('',#1115,10.);
#348=VECTOR('',#1116,10.);
#349=VECTOR('',#1119,10.);
#350=VECTOR('',#1120,10.);
#351=VECTOR('',#1133,10.);
#352=VECTOR('',#1134,10.);
#353=VECTOR('',#1135,10.);
#354=VECTOR('',#1136,10.);
#355=VECTOR('',#1137,10.);
#356=VECTOR('',#1138,10.);
#357=VECTOR('',#1141,10.);
#358=VECTOR('',#1142,10.);
#359=VECTOR('',#1143,10.);
#360=VECTOR('',#1144,10.);
#361=VECTOR('',#1147,10.);
#362=VECTOR('',#1148,10.);
#363=VECTOR('',#1149,10.);
#364=VECTOR('',#1152,10.);
#365=VECTOR('',#1153,10.);
#366=VECTOR('',#1154,10.);
#367=VECTOR('',#1157,10.);
#368=VECTOR('',#1158,10.);
#369=VECTOR('',#1161,10.);
#370=VECTOR('',#1162,10.);
#371=VECTOR('',#1163,10.);
#372=VECTOR('',#1164,10.);
#373=VECTOR('',#1165,10.);
#374=VECTOR('',#1168,10.);
#375=VECTOR('',#1173,10.);
#376=VECTOR('',#1178,10.);
#377=VECTOR('',#1179,10.);
#378=VECTOR('',#1180,10.);
#379=VECTOR('',#1183,10.);
#380=VECTOR('',#1186,10.);
#381=VERTEX_POINT('',#1191);
#382=VERTEX_POINT('',#1192);
#383=VERTEX_POINT('',#1194);
#384=VERTEX_POINT('',#1196);
#385=VERTEX_POINT('',#1200);
#386=VERTEX_POINT('',#1202);
#387=VERTEX_POINT('',#1206);
#388=VERTEX_POINT('',#1208);
#389=VERTEX_POINT('',#1216);
#390=VERTEX_POINT('',#1217);
#391=VERTEX_POINT('',#1219);
#392=VERTEX_POINT('',#1221);
#393=VERTEX_POINT('',#1225);
#394=VERTEX_POINT('',#1227);
#395=VERTEX_POINT('',#1231);
#396=VERTEX_POINT('',#1233);
#397=VERTEX_POINT('',#1241);
#398=VERTEX_POINT('',#1242);
#399=VERTEX_POINT('',#1244);
#400=VERTEX_POINT('',#1246);
#401=VERTEX_POINT('',#1250);
#402=VERTEX_POINT('',#1252);
#403=VERTEX_POINT('',#1256);
#404=VERTEX_POINT('',#1258);
#405=VERTEX_POINT('',#1266);
#406=VERTEX_POINT('',#1267);
#407=VERTEX_POINT('',#1269);
#408=VERTEX_POINT('',#1273);
#409=VERTEX_POINT('',#1274);
#410=VERTEX_POINT('',#1276);
#411=VERTEX_POINT('',#1283);
#412=VERTEX_POINT('',#1284);
#413=VERTEX_POINT('',#1286);
#414=VERTEX_POINT('',#1293);
#415=VERTEX_POINT('',#1294);
#416=VERTEX_POINT('',#1296);
#417=VERTEX_POINT('',#1303);
#418=VERTEX_POINT('',#1304);
#419=VERTEX_POINT('',#1306);
#420=VERTEX_POINT('',#1316);
#421=VERTEX_POINT('',#1317);
#422=VERTEX_POINT('',#1319);
#423=VERTEX_POINT('',#1326);
#424=VERTEX_POINT('',#1327);
#425=VERTEX_POINT('',#1329);
#426=VERTEX_POINT('',#1339);
#427=VERTEX_POINT('',#1340);
#428=VERTEX_POINT('',#1342);
#429=VERTEX_POINT('',#1363);
#430=VERTEX_POINT('',#1364);
#431=VERTEX_POINT('',#1366);
#432=VERTEX_POINT('',#1368);
#433=VERTEX_POINT('',#1370);
#434=VERTEX_POINT('',#1372);
#435=VERTEX_POINT('',#1376);
#436=VERTEX_POINT('',#1377);
#437=VERTEX_POINT('',#1379);
#438=VERTEX_POINT('',#1381);
#439=VERTEX_POINT('',#1385);
#440=VERTEX_POINT('',#1387);
#441=VERTEX_POINT('',#1391);
#442=VERTEX_POINT('',#1393);
#443=VERTEX_POINT('',#1401);
#444=VERTEX_POINT('',#1403);
#445=VERTEX_POINT('',#1414);
#446=VERTEX_POINT('',#1416);
#447=EDGE_CURVE('',#381,#382,#153,.T.);
#448=EDGE_CURVE('',#381,#383,#154,.T.);
#449=EDGE_CURVE('',#384,#383,#155,.T.);
#450=EDGE_CURVE('',#382,#384,#156,.T.);
#451=EDGE_CURVE('',#382,#385,#157,.T.);
#452=EDGE_CURVE('',#386,#384,#158,.T.);
#453=EDGE_CURVE('',#385,#386,#159,.T.);
#454=EDGE_CURVE('',#385,#387,#160,.T.);
#455=EDGE_CURVE('',#388,#386,#161,.T.);
#456=EDGE_CURVE('',#387,#388,#162,.T.);
#457=EDGE_CURVE('',#387,#381,#163,.T.);
#458=EDGE_CURVE('',#383,#388,#164,.T.);
#459=EDGE_CURVE('',#389,#390,#165,.T.);
#460=EDGE_CURVE('',#389,#391,#166,.T.);
#461=EDGE_CURVE('',#392,#391,#167,.T.);
#462=EDGE_CURVE('',#390,#392,#168,.T.);
#463=EDGE_CURVE('',#390,#393,#169,.T.);
#464=EDGE_CURVE('',#394,#392,#170,.T.);
#465=EDGE_CURVE('',#393,#394,#171,.T.);
#466=EDGE_CURVE('',#393,#395,#172,.T.);
#467=EDGE_CURVE('',#396,#394,#173,.T.);
#468=EDGE_CURVE('',#395,#396,#174,.T.);
#469=EDGE_CURVE('',#395,#389,#175,.T.);
#470=EDGE_CURVE('',#391,#396,#176,.T.);
#471=EDGE_CURVE('',#397,#398,#177,.T.);
#472=EDGE_CURVE('',#397,#399,#178,.T.);
#473=EDGE_CURVE('',#400,#399,#179,.T.);
#474=EDGE_CURVE('',#398,#400,#180,.T.);
#475=EDGE_CURVE('',#398,#401,#181,.T.);
#476=EDGE_CURVE('',#402,#400,#182,.T.);
#477=EDGE_CURVE('',#401,#402,#183,.T.);
#478=EDGE_CURVE('',#401,#403,#184,.T.);
#479=EDGE_CURVE('',#404,#402,#185,.T.);
#480=EDGE_CURVE('',#403,#404,#186,.T.);
#481=EDGE_CURVE('',#403,#397,#187,.T.);
#482=EDGE_CURVE('',#399,#404,#188,.T.);
#483=EDGE_CURVE('',#405,#406,#189,.T.);
#484=EDGE_CURVE('',#407,#405,#190,.T.);
#485=EDGE_CURVE('',#406,#407,#191,.T.);
#486=EDGE_CURVE('',#408,#409,#192,.T.);
#487=EDGE_CURVE('',#410,#408,#193,.T.);
#488=EDGE_CURVE('',#409,#410,#194,.T.);
#489=EDGE_CURVE('',#408,#406,#195,.T.);
#490=EDGE_CURVE('',#407,#410,#196,.T.);
#491=EDGE_CURVE('',#411,#412,#197,.T.);
#492=EDGE_CURVE('',#413,#411,#198,.T.);
#493=EDGE_CURVE('',#412,#413,#199,.T.);
#494=EDGE_CURVE('',#405,#413,#200,.T.);
#495=EDGE_CURVE('',#411,#407,#201,.T.);
#496=EDGE_CURVE('',#414,#415,#202,.T.);
#497=EDGE_CURVE('',#416,#414,#203,.T.);
#498=EDGE_CURVE('',#415,#416,#204,.T.);
#499=EDGE_CURVE('',#414,#405,#205,.T.);
#500=EDGE_CURVE('',#406,#416,#206,.T.);
#501=EDGE_CURVE('',#417,#418,#207,.T.);
#502=EDGE_CURVE('',#419,#417,#208,.T.);
#503=EDGE_CURVE('',#418,#419,#209,.T.);
#504=EDGE_CURVE('',#417,#409,#210,.T.);
#505=EDGE_CURVE('',#410,#419,#211,.T.);
#506=EDGE_CURVE('',#412,#418,#212,.T.);
#507=EDGE_CURVE('',#419,#411,#213,.T.);
#508=EDGE_CURVE('',#420,#421,#214,.T.);
#509=EDGE_CURVE('',#422,#420,#215,.T.);
#510=EDGE_CURVE('',#421,#422,#216,.T.);
#511=EDGE_CURVE('',#420,#408,#217,.T.);
#512=EDGE_CURVE('',#409,#422,#218,.T.);
#513=EDGE_CURVE('',#423,#424,#219,.T.);
#514=EDGE_CURVE('',#425,#423,#220,.T.);
#515=EDGE_CURVE('',#424,#425,#221,.T.);
#516=EDGE_CURVE('',#423,#412,#222,.T.);
#517=EDGE_CURVE('',#413,#425,#223,.T.);
#518=EDGE_CURVE('',#415,#424,#224,.T.);
#519=EDGE_CURVE('',#425,#414,#225,.T.);
#520=EDGE_CURVE('',#426,#427,#226,.T.);
#521=EDGE_CURVE('',#428,#426,#227,.T.);
#522=EDGE_CURVE('',#427,#428,#228,.T.);
#523=EDGE_CURVE('',#426,#417,#229,.T.);
#524=EDGE_CURVE('',#418,#428,#230,.T.);
#525=EDGE_CURVE('',#424,#427,#231,.T.);
#526=EDGE_CURVE('',#428,#423,#232,.T.);
#527=EDGE_CURVE('',#427,#421,#233,.T.);
#528=EDGE_CURVE('',#422,#426,#234,.T.);
#529=EDGE_CURVE('',#421,#415,#235,.T.);
#530=EDGE_CURVE('',#416,#420,#236,.T.);
#531=EDGE_CURVE('',#429,#430,#237,.T.);
#532=EDGE_CURVE('',#430,#431,#238,.T.);
#533=EDGE_CURVE('',#431,#432,#239,.T.);
#534=EDGE_CURVE('',#432,#433,#240,.T.);
#535=EDGE_CURVE('',#433,#434,#241,.T.);
#536=EDGE_CURVE('',#434,#429,#242,.T.);
#537=EDGE_CURVE('',#435,#436,#243,.T.);
#538=EDGE_CURVE('',#436,#437,#244,.T.);
#539=EDGE_CURVE('',#437,#438,#245,.T.);
#540=EDGE_CURVE('',#435,#438,#246,.T.);
#541=EDGE_CURVE('',#436,#439,#247,.T.);
#542=EDGE_CURVE('',#439,#440,#248,.T.);
#543=EDGE_CURVE('',#440,#437,#249,.T.);
#544=EDGE_CURVE('',#439,#441,#250,.T.);
#545=EDGE_CURVE('',#441,#442,#251,.T.);
#546=EDGE_CURVE('',#442,#440,#252,.T.);
#547=EDGE_CURVE('',#438,#442,#253,.T.);
#548=EDGE_CURVE('',#441,#435,#254,.T.);
#549=EDGE_CURVE('',#429,#438,#255,.T.);
#550=EDGE_CURVE('',#429,#443,#256,.T.);
#551=EDGE_CURVE('',#443,#444,#257,.T.);
#552=EDGE_CURVE('',#432,#444,#258,.T.);
#553=EDGE_CURVE('',#432,#442,#259,.T.);
#554=EDGE_CURVE('',#430,#437,#260,.T.);
#555=EDGE_CURVE('',#431,#440,#261,.T.);
#556=EDGE_CURVE('',#433,#445,#262,.T.);
#557=EDGE_CURVE('',#445,#446,#263,.T.);
#558=EDGE_CURVE('',#434,#446,#264,.T.);
#559=EDGE_CURVE('',#444,#445,#265,.T.);
#560=EDGE_CURVE('',#446,#443,#266,.T.);
#561=ORIENTED_EDGE('',*,*,#447,.F.);
#562=ORIENTED_EDGE('',*,*,#448,.T.);
#563=ORIENTED_EDGE('',*,*,#449,.F.);
#564=ORIENTED_EDGE('',*,*,#450,.F.);
#565=ORIENTED_EDGE('',*,*,#451,.F.);
#566=ORIENTED_EDGE('',*,*,#450,.T.);
#567=ORIENTED_EDGE('',*,*,#452,.F.);
#568=ORIENTED_EDGE('',*,*,#453,.F.);
#569=ORIENTED_EDGE('',*,*,#454,.F.);
#570=ORIENTED_EDGE('',*,*,#453,.T.);
#571=ORIENTED_EDGE('',*,*,#455,.F.);
#572=ORIENTED_EDGE('',*,*,#456,.F.);
#573=ORIENTED_EDGE('',*,*,#457,.F.);
#574=ORIENTED_EDGE('',*,*,#456,.T.);
#575=ORIENTED_EDGE('',*,*,#458,.F.);
#576=ORIENTED_EDGE('',*,*,#448,.F.);
#577=ORIENTED_EDGE('',*,*,#458,.T.);
#578=ORIENTED_EDGE('',*,*,#455,.T.);
#579=ORIENTED_EDGE('',*,*,#452,.T.);
#580=ORIENTED_EDGE('',*,*,#449,.T.);
#581=ORIENTED_EDGE('',*,*,#459,.F.);
#582=ORIENTED_EDGE('',*,*,#460,.T.);
#583=ORIENTED_EDGE('',*,*,#461,.F.);
#584=ORIENTED_EDGE('',*,*,#462,.F.);
#585=ORIENTED_EDGE('',*,*,#463,.F.);
#586=ORIENTED_EDGE('',*,*,#462,.T.);
#587=ORIENTED_EDGE('',*,*,#464,.F.);
#588=ORIENTED_EDGE('',*,*,#465,.F.);
#589=ORIENTED_EDGE('',*,*,#466,.F.);
#590=ORIENTED_EDGE('',*,*,#465,.T.);
#591=ORIENTED_EDGE('',*,*,#467,.F.);
#592=ORIENTED_EDGE('',*,*,#468,.F.);
#593=ORIENTED_EDGE('',*,*,#469,.F.);
#594=ORIENTED_EDGE('',*,*,#468,.T.);
#595=ORIENTED_EDGE('',*,*,#470,.F.);
#596=ORIENTED_EDGE('',*,*,#460,.F.);
#597=ORIENTED_EDGE('',*,*,#470,.T.);
#598=ORIENTED_EDGE('',*,*,#467,.T.);
#599=ORIENTED_EDGE('',*,*,#464,.T.);
#600=ORIENTED_EDGE('',*,*,#461,.T.);
#601=ORIENTED_EDGE('',*,*,#471,.F.);
#602=ORIENTED_EDGE('',*,*,#472,.T.);
#603=ORIENTED_EDGE('',*,*,#473,.F.);
#604=ORIENTED_EDGE('',*,*,#474,.F.);
#605=ORIENTED_EDGE('',*,*,#475,.F.);
#606=ORIENTED_EDGE('',*,*,#474,.T.);
#607=ORIENTED_EDGE('',*,*,#476,.F.);
#608=ORIENTED_EDGE('',*,*,#477,.F.);
#609=ORIENTED_EDGE('',*,*,#478,.F.);
#610=ORIENTED_EDGE('',*,*,#477,.T.);
#611=ORIENTED_EDGE('',*,*,#479,.F.);
#612=ORIENTED_EDGE('',*,*,#480,.F.);
#613=ORIENTED_EDGE('',*,*,#481,.F.);
#614=ORIENTED_EDGE('',*,*,#480,.T.);
#615=ORIENTED_EDGE('',*,*,#482,.F.);
#616=ORIENTED_EDGE('',*,*,#472,.F.);
#617=ORIENTED_EDGE('',*,*,#482,.T.);
#618=ORIENTED_EDGE('',*,*,#479,.T.);
#619=ORIENTED_EDGE('',*,*,#476,.T.);
#620=ORIENTED_EDGE('',*,*,#473,.T.);
#621=ORIENTED_EDGE('',*,*,#483,.F.);
#622=ORIENTED_EDGE('',*,*,#484,.F.);
#623=ORIENTED_EDGE('',*,*,#485,.F.);
#624=ORIENTED_EDGE('',*,*,#486,.F.);
#625=ORIENTED_EDGE('',*,*,#487,.F.);
#626=ORIENTED_EDGE('',*,*,#488,.F.);
#627=ORIENTED_EDGE('',*,*,#487,.T.);
#628=ORIENTED_EDGE('',*,*,#489,.T.);
#629=ORIENTED_EDGE('',*,*,#485,.T.);
#630=ORIENTED_EDGE('',*,*,#490,.T.);
#631=ORIENTED_EDGE('',*,*,#491,.F.);
#632=ORIENTED_EDGE('',*,*,#492,.F.);
#633=ORIENTED_EDGE('',*,*,#493,.F.);
#634=ORIENTED_EDGE('',*,*,#484,.T.);
#635=ORIENTED_EDGE('',*,*,#494,.T.);
#636=ORIENTED_EDGE('',*,*,#492,.T.);
#637=ORIENTED_EDGE('',*,*,#495,.T.);
#638=ORIENTED_EDGE('',*,*,#496,.F.);
#639=ORIENTED_EDGE('',*,*,#497,.F.);
#640=ORIENTED_EDGE('',*,*,#498,.F.);
#641=ORIENTED_EDGE('',*,*,#497,.T.);
#642=ORIENTED_EDGE('',*,*,#499,.T.);
#643=ORIENTED_EDGE('',*,*,#483,.T.);
#644=ORIENTED_EDGE('',*,*,#500,.T.);
#645=ORIENTED_EDGE('',*,*,#501,.F.);
#646=ORIENTED_EDGE('',*,*,#502,.F.);
#647=ORIENTED_EDGE('',*,*,#503,.F.);
#648=ORIENTED_EDGE('',*,*,#502,.T.);
#649=ORIENTED_EDGE('',*,*,#504,.T.);
#650=ORIENTED_EDGE('',*,*,#488,.T.);
#651=ORIENTED_EDGE('',*,*,#505,.T.);
#652=ORIENTED_EDGE('',*,*,#491,.T.);
#653=ORIENTED_EDGE('',*,*,#506,.T.);
#654=ORIENTED_EDGE('',*,*,#503,.T.);
#655=ORIENTED_EDGE('',*,*,#507,.T.);
#656=ORIENTED_EDGE('',*,*,#508,.F.);
#657=ORIENTED_EDGE('',*,*,#509,.F.);
#658=ORIENTED_EDGE('',*,*,#510,.F.);
#659=ORIENTED_EDGE('',*,*,#509,.T.);
#660=ORIENTED_EDGE('',*,*,#511,.T.);
#661=ORIENTED_EDGE('',*,*,#486,.T.);
#662=ORIENTED_EDGE('',*,*,#512,.T.);
#663=ORIENTED_EDGE('',*,*,#513,.F.);
#664=ORIENTED_EDGE('',*,*,#514,.F.);
#665=ORIENTED_EDGE('',*,*,#515,.F.);
#666=ORIENTED_EDGE('',*,*,#514,.T.);
#667=ORIENTED_EDGE('',*,*,#516,.T.);
#668=ORIENTED_EDGE('',*,*,#493,.T.);
#669=ORIENTED_EDGE('',*,*,#517,.T.);
#670=ORIENTED_EDGE('',*,*,#496,.T.);
#671=ORIENTED_EDGE('',*,*,#518,.T.);
#672=ORIENTED_EDGE('',*,*,#515,.T.);
#673=ORIENTED_EDGE('',*,*,#519,.T.);
#674=ORIENTED_EDGE('',*,*,#520,.F.);
#675=ORIENTED_EDGE('',*,*,#521,.F.);
#676=ORIENTED_EDGE('',*,*,#522,.F.);
#677=ORIENTED_EDGE('',*,*,#521,.T.);
#678=ORIENTED_EDGE('',*,*,#523,.T.);
#679=ORIENTED_EDGE('',*,*,#501,.T.);
#680=ORIENTED_EDGE('',*,*,#524,.T.);
#681=ORIENTED_EDGE('',*,*,#513,.T.);
#682=ORIENTED_EDGE('',*,*,#525,.T.);
#683=ORIENTED_EDGE('',*,*,#522,.T.);
#684=ORIENTED_EDGE('',*,*,#526,.T.);
#685=ORIENTED_EDGE('',*,*,#520,.T.);
#686=ORIENTED_EDGE('',*,*,#527,.T.);
#687=ORIENTED_EDGE('',*,*,#510,.T.);
#688=ORIENTED_EDGE('',*,*,#528,.T.);
#689=ORIENTED_EDGE('',*,*,#508,.T.);
#690=ORIENTED_EDGE('',*,*,#529,.T.);
#691=ORIENTED_EDGE('',*,*,#498,.T.);
#692=ORIENTED_EDGE('',*,*,#530,.T.);
#693=ORIENTED_EDGE('',*,*,#489,.F.);
#694=ORIENTED_EDGE('',*,*,#511,.F.);
#695=ORIENTED_EDGE('',*,*,#530,.F.);
#696=ORIENTED_EDGE('',*,*,#500,.F.);
#697=ORIENTED_EDGE('',*,*,#490,.F.);
#698=ORIENTED_EDGE('',*,*,#495,.F.);
#699=ORIENTED_EDGE('',*,*,#507,.F.);
#700=ORIENTED_EDGE('',*,*,#505,.F.);
#701=ORIENTED_EDGE('',*,*,#447,.T.);
#702=ORIENTED_EDGE('',*,*,#451,.T.);
#703=ORIENTED_EDGE('',*,*,#454,.T.);
#704=ORIENTED_EDGE('',*,*,#457,.T.);
#705=ORIENTED_EDGE('',*,*,#459,.T.);
#706=ORIENTED_EDGE('',*,*,#463,.T.);
#707=ORIENTED_EDGE('',*,*,#466,.T.);
#708=ORIENTED_EDGE('',*,*,#469,.T.);
#709=ORIENTED_EDGE('',*,*,#471,.T.);
#710=ORIENTED_EDGE('',*,*,#475,.T.);
#711=ORIENTED_EDGE('',*,*,#478,.T.);
#712=ORIENTED_EDGE('',*,*,#481,.T.);
#713=ORIENTED_EDGE('',*,*,#494,.F.);
#714=ORIENTED_EDGE('',*,*,#499,.F.);
#715=ORIENTED_EDGE('',*,*,#519,.F.);
#716=ORIENTED_EDGE('',*,*,#517,.F.);
#717=ORIENTED_EDGE('',*,*,#504,.F.);
#718=ORIENTED_EDGE('',*,*,#523,.F.);
#719=ORIENTED_EDGE('',*,*,#528,.F.);
#720=ORIENTED_EDGE('',*,*,#512,.F.);
#721=ORIENTED_EDGE('',*,*,#506,.F.);
#722=ORIENTED_EDGE('',*,*,#516,.F.);
#723=ORIENTED_EDGE('',*,*,#526,.F.);
#724=ORIENTED_EDGE('',*,*,#524,.F.);
#725=ORIENTED_EDGE('',*,*,#518,.F.);
#726=ORIENTED_EDGE('',*,*,#529,.F.);
#727=ORIENTED_EDGE('',*,*,#527,.F.);
#728=ORIENTED_EDGE('',*,*,#525,.F.);
#729=ORIENTED_EDGE('',*,*,#531,.T.);
#730=ORIENTED_EDGE('',*,*,#532,.T.);
#731=ORIENTED_EDGE('',*,*,#533,.T.);
#732=ORIENTED_EDGE('',*,*,#534,.T.);
#733=ORIENTED_EDGE('',*,*,#535,.T.);
#734=ORIENTED_EDGE('',*,*,#536,.T.);
#735=ORIENTED_EDGE('',*,*,#537,.T.);
#736=ORIENTED_EDGE('',*,*,#538,.T.);
#737=ORIENTED_EDGE('',*,*,#539,.T.);
#738=ORIENTED_EDGE('',*,*,#540,.F.);
#739=ORIENTED_EDGE('',*,*,#541,.T.);
#740=ORIENTED_EDGE('',*,*,#542,.T.);
#741=ORIENTED_EDGE('',*,*,#543,.T.);
#742=ORIENTED_EDGE('',*,*,#538,.F.);
#743=ORIENTED_EDGE('',*,*,#544,.T.);
#744=ORIENTED_EDGE('',*,*,#545,.T.);
#745=ORIENTED_EDGE('',*,*,#546,.T.);
#746=ORIENTED_EDGE('',*,*,#542,.F.);
#747=ORIENTED_EDGE('',*,*,#547,.T.);
#748=ORIENTED_EDGE('',*,*,#545,.F.);
#749=ORIENTED_EDGE('',*,*,#548,.T.);
#750=ORIENTED_EDGE('',*,*,#540,.T.);
#751=ORIENTED_EDGE('',*,*,#547,.F.);
#752=ORIENTED_EDGE('',*,*,#549,.F.);
#753=ORIENTED_EDGE('',*,*,#550,.T.);
#754=ORIENTED_EDGE('',*,*,#551,.T.);
#755=ORIENTED_EDGE('',*,*,#552,.F.);
#756=ORIENTED_EDGE('',*,*,#553,.T.);
#757=ORIENTED_EDGE('',*,*,#539,.F.);
#758=ORIENTED_EDGE('',*,*,#554,.F.);
#759=ORIENTED_EDGE('',*,*,#531,.F.);
#760=ORIENTED_EDGE('',*,*,#549,.T.);
#761=ORIENTED_EDGE('',*,*,#537,.F.);
#762=ORIENTED_EDGE('',*,*,#548,.F.);
#763=ORIENTED_EDGE('',*,*,#544,.F.);
#764=ORIENTED_EDGE('',*,*,#541,.F.);
#765=ORIENTED_EDGE('',*,*,#546,.F.);
#766=ORIENTED_EDGE('',*,*,#553,.F.);
#767=ORIENTED_EDGE('',*,*,#533,.F.);
#768=ORIENTED_EDGE('',*,*,#555,.T.);
#769=ORIENTED_EDGE('',*,*,#543,.F.);
#770=ORIENTED_EDGE('',*,*,#555,.F.);
#771=ORIENTED_EDGE('',*,*,#532,.F.);
#772=ORIENTED_EDGE('',*,*,#554,.T.);
#773=ORIENTED_EDGE('',*,*,#535,.F.);
#774=ORIENTED_EDGE('',*,*,#556,.T.);
#775=ORIENTED_EDGE('',*,*,#557,.T.);
#776=ORIENTED_EDGE('',*,*,#558,.F.);
#777=ORIENTED_EDGE('',*,*,#534,.F.);
#778=ORIENTED_EDGE('',*,*,#552,.T.);
#779=ORIENTED_EDGE('',*,*,#559,.T.);
#780=ORIENTED_EDGE('',*,*,#556,.F.);
#781=ORIENTED_EDGE('',*,*,#536,.F.);
#782=ORIENTED_EDGE('',*,*,#558,.T.);
#783=ORIENTED_EDGE('',*,*,#560,.T.);
#784=ORIENTED_EDGE('',*,*,#550,.F.);
#785=ORIENTED_EDGE('',*,*,#560,.F.);
#786=ORIENTED_EDGE('',*,*,#557,.F.);
#787=ORIENTED_EDGE('',*,*,#559,.F.);
#788=ORIENTED_EDGE('',*,*,#551,.F.);
#789=PLANE('',#911);
#790=PLANE('',#912);
#791=PLANE('',#913);
#792=PLANE('',#914);
#793=PLANE('',#915);
#794=PLANE('',#916);
#795=PLANE('',#917);
#796=PLANE('',#918);
#797=PLANE('',#919);
#798=PLANE('',#920);
#799=PLANE('',#921);
#800=PLANE('',#922);
#801=PLANE('',#923);
#802=PLANE('',#924);
#803=PLANE('',#925);
#804=PLANE('',#926);
#805=PLANE('',#927);
#806=PLANE('',#928);
#807=PLANE('',#929);
#808=PLANE('',#930);
#809=PLANE('',#931);
#810=PLANE('',#932);
#811=PLANE('',#933);
#812=PLANE('',#934);
#813=PLANE('',#935);
#814=PLANE('',#936);
#815=PLANE('',#937);
#816=PLANE('',#938);
#817=PLANE('',#939);
#818=PLANE('',#940);
#819=PLANE('',#941);
#820=PLANE('',#942);
#821=PLANE('',#943);
#822=PLANE('',#944);
#823=PLANE('',#945);
#824=PLANE('',#946);
#825=PLANE('',#947);
#826=PLANE('',#948);
#827=PLANE('',#949);
#828=PLANE('',#950);
#829=PLANE('',#951);
#830=PLANE('',#952);
#831=PLANE('',#953);
#832=PLANE('',#954);
#833=PLANE('',#955);
#834=PLANE('',#956);
#835=PLANE('',#957);
#836=PLANE('',#958);
#837=PLANE('',#959);
#838=PLANE('',#960);
#839=PLANE('',#961);
#840=PLANE('',#962);
#841=PLANE('',#963);
#842=PLANE('',#964);
#843=ADVANCED_FACE('',(#41),#789,.T.);
#844=ADVANCED_FACE('',(#42),#790,.T.);
#845=ADVANCED_FACE('',(#43),#791,.T.);
#846=ADVANCED_FACE('',(#44),#792,.T.);
#847=ADVANCED_FACE('',(#45),#793,.T.);
#848=ADVANCED_FACE('',(#46),#794,.T.);
#849=ADVANCED_FACE('',(#47),#795,.T.);
#850=ADVANCED_FACE('',(#48),#796,.T.);
#851=ADVANCED_FACE('',(#49),#797,.T.);
#852=ADVANCED_FACE('',(#50),#798,.T.);
#853=ADVANCED_FACE('',(#51),#799,.T.);
#854=ADVANCED_FACE('',(#52),#800,.T.);
#855=ADVANCED_FACE('',(#53),#801,.T.);
#856=ADVANCED_FACE('',(#54),#802,.T.);
#857=ADVANCED_FACE('',(#55),#803,.T.);
#858=ADVANCED_FACE('',(#56),#804,.T.);
#859=ADVANCED_FACE('',(#57),#805,.T.);
#860=ADVANCED_FACE('',(#58),#806,.T.);
#861=ADVANCED_FACE('',(#59),#807,.T.);
#862=ADVANCED_FACE('',(#60),#808,.T.);
#863=ADVANCED_FACE('',(#61),#809,.T.);
#864=ADVANCED_FACE('',(#62),#810,.T.);
#865=ADVANCED_FACE('',(#63),#811,.T.);
#866=ADVANCED_FACE('',(#64),#812,.T.);
#867=ADVANCED_FACE('',(#65),#813,.T.);
#868=ADVANCED_FACE('',(#66),#814,.T.);
#869=ADVANCED_FACE('',(#67),#815,.T.);
#870=ADVANCED_FACE('',(#68),#816,.T.);
#871=ADVANCED_FACE('',(#69),#817,.T.);
#872=ADVANCED_FACE('',(#70),#818,.T.);
#873=ADVANCED_FACE('',(#71),#819,.T.);
#874=ADVANCED_FACE('',(#72),#820,.T.);
#875=ADVANCED_FACE('',(#73),#821,.T.);
#876=ADVANCED_FACE('',(#74),#822,.T.);
#877=ADVANCED_FACE('',(#75),#823,.T.);
#878=ADVANCED_FACE('',(#76),#824,.T.);
#879=ADVANCED_FACE('',(#77,#14,#15,#16),#825,.F.);
#880=ADVANCED_FACE('',(#78),#826,.T.);
#881=ADVANCED_FACE('',(#79),#827,.T.);
#882=ADVANCED_FACE('',(#80),#828,.T.);
#883=ADVANCED_FACE('',(#81,#17),#829,.T.);
#884=ADVANCED_FACE('',(#82),#830,.T.);
#885=ADVANCED_FACE('',(#83),#831,.T.);
#886=ADVANCED_FACE('',(#84),#832,.T.);
#887=ADVANCED_FACE('',(#85),#833,.T.);
#888=ADVANCED_FACE('',(#86),#834,.F.);
#889=ADVANCED_FACE('',(#87),#835,.T.);
#890=ADVANCED_FACE('',(#88),#836,.T.);
#891=ADVANCED_FACE('',(#89),#837,.T.);
#892=ADVANCED_FACE('',(#90),#838,.T.);
#893=ADVANCED_FACE('',(#91),#839,.F.);
#894=ADVANCED_FACE('',(#92),#840,.F.);
#895=ADVANCED_FACE('',(#93),#841,.F.);
#896=ADVANCED_FACE('',(#94),#842,.F.);
#897=CLOSED_SHELL('',(#843,#844,#845,#846,#847,#848,#849,#850,#851,#852,
#853,#854,#855,#856,#857,#858,#859,#860,#861,#862,#863,#864,#865,#866,#867,
#868,#869,#870,#871,#872,#873,#874,#875,#876,#877,#878,#879,#880,#881,#882,
#883,#884,#885,#886,#887,#888,#889,#890,#891,#892,#893,#894,#895,#896));
#898=DERIVED_UNIT_ELEMENT(#900,1.);
#899=DERIVED_UNIT_ELEMENT(#1429,-3.);
#900=(
MASS_UNIT()
NAMED_UNIT(*)
SI_UNIT(.KILO.,.GRAM.)
);
#901=DERIVED_UNIT((#898,#899));
#902=MEASURE_REPRESENTATION_ITEM('density measure',
POSITIVE_RATIO_MEASURE(7850.),#901);
#903=PROPERTY_DEFINITION_REPRESENTATION(#908,#905);
#904=PROPERTY_DEFINITION_REPRESENTATION(#909,#906);
#905=REPRESENTATION('material name',(#907),#1426);
#906=REPRESENTATION('density',(#902),#1426);
#907=DESCRIPTIVE_REPRESENTATION_ITEM('Steel','Steel');
#908=PROPERTY_DEFINITION('material property','material name',#1436);
#909=PROPERTY_DEFINITION('material property','density of part',#1436);
#910=AXIS2_PLACEMENT_3D('',#1189,#965,#966);
#911=AXIS2_PLACEMENT_3D('',#1190,#967,#968);
#912=AXIS2_PLACEMENT_3D('',#1199,#973,#974);
#913=AXIS2_PLACEMENT_3D('',#1205,#978,#979);
#914=AXIS2_PLACEMENT_3D('',#1211,#983,#984);
#915=AXIS2_PLACEMENT_3D('',#1214,#987,#988);
#916=AXIS2_PLACEMENT_3D('',#1215,#989,#990);
#917=AXIS2_PLACEMENT_3D('',#1224,#995,#996);
#918=AXIS2_PLACEMENT_3D('',#1230,#1000,#1001);
#919=AXIS2_PLACEMENT_3D('',#1236,#1005,#1006);
#920=AXIS2_PLACEMENT_3D('',#1239,#1009,#1010);
#921=AXIS2_PLACEMENT_3D('',#1240,#1011,#1012);
#922=AXIS2_PLACEMENT_3D('',#1249,#1017,#1018);
#923=AXIS2_PLACEMENT_3D('',#1255,#1022,#1023);
#924=AXIS2_PLACEMENT_3D('',#1261,#1027,#1028);
#925=AXIS2_PLACEMENT_3D('',#1264,#1031,#1032);
#926=AXIS2_PLACEMENT_3D('',#1265,#1033,#1034);
#927=AXIS2_PLACEMENT_3D('',#1272,#1038,#1039);
#928=AXIS2_PLACEMENT_3D('',#1279,#1043,#1044);
#929=AXIS2_PLACEMENT_3D('',#1282,#1047,#1048);
#930=AXIS2_PLACEMENT_3D('',#1289,#1052,#1053);
#931=AXIS2_PLACEMENT_3D('',#1292,#1056,#1057);
#932=AXIS2_PLACEMENT_3D('',#1299,#1061,#1062);
#933=AXIS2_PLACEMENT_3D('',#1302,#1065,#1066);
#934=AXIS2_PLACEMENT_3D('',#1309,#1070,#1071);
#935=AXIS2_PLACEMENT_3D('',#1312,#1074,#1075);
#936=AXIS2_PLACEMENT_3D('',#1315,#1078,#1079);
#937=AXIS2_PLACEMENT_3D('',#1322,#1083,#1084);
#938=AXIS2_PLACEMENT_3D('',#1325,#1087,#1088);
#939=AXIS2_PLACEMENT_3D('',#1332,#1092,#1093);
#940=AXIS2_PLACEMENT_3D('',#1335,#1096,#1097);
#941=AXIS2_PLACEMENT_3D('',#1338,#1100,#1101);
#942=AXIS2_PLACEMENT_3D('',#1345,#1105,#1106);
#943=AXIS2_PLACEMENT_3D('',#1348,#1109,#1110);
#944=AXIS2_PLACEMENT_3D('',#1351,#1113,#1114);
#945=AXIS2_PLACEMENT_3D('',#1354,#1117,#1118);
#946=AXIS2_PLACEMENT_3D('',#1357,#1121,#1122);
#947=AXIS2_PLACEMENT_3D('',#1358,#1123,#1124);
#948=AXIS2_PLACEMENT_3D('',#1359,#1125,#1126);
#949=AXIS2_PLACEMENT_3D('',#1360,#1127,#1128);
#950=AXIS2_PLACEMENT_3D('',#1361,#1129,#1130);
#951=AXIS2_PLACEMENT_3D('',#1362,#1131,#1132);
#952=AXIS2_PLACEMENT_3D('',#1375,#1139,#1140);
#953=AXIS2_PLACEMENT_3D('',#1384,#1145,#1146);
#954=AXIS2_PLACEMENT_3D('',#1390,#1150,#1151);
#955=AXIS2_PLACEMENT_3D('',#1396,#1155,#1156);
#956=AXIS2_PLACEMENT_3D('',#1399,#1159,#1160);
#957=AXIS2_PLACEMENT_3D('',#1407,#1166,#1167);
#958=AXIS2_PLACEMENT_3D('',#1409,#1169,#1170);
#959=AXIS2_PLACEMENT_3D('',#1410,#1171,#1172);
#960=AXIS2_PLACEMENT_3D('',#1412,#1174,#1175);
#961=AXIS2_PLACEMENT_3D('',#1413,#1176,#1177);
#962=AXIS2_PLACEMENT_3D('',#1419,#1181,#1182);
#963=AXIS2_PLACEMENT_3D('',#1421,#1184,#1185);
#964=AXIS2_PLACEMENT_3D('',#1423,#1187,#1188);
#965=DIRECTION('axis',(0.,0.,1.));
#966=DIRECTION('refdir',(1.,0.,0.));
#967=DIRECTION('center_axis',(0.,0.,-1.));
#968=DIRECTION('ref_axis',(1.,0.,0.));
#969=DIRECTION('',(-1.,0.,0.));
#970=DIRECTION('',(0.,-1.,0.));
#971=DIRECTION('',(1.,0.,0.));
#972=DIRECTION('',(0.,-1.,0.));
#973=DIRECTION('center_axis',(-1.,0.,0.));
#974=DIRECTION('ref_axis',(0.,0.,-1.));
#975=DIRECTION('',(0.,0.,1.));
#976=DIRECTION('',(0.,0.,-1.));
#977=DIRECTION('',(0.,-1.,0.));
#978=DIRECTION('center_axis',(0.,0.,1.));
#979=DIRECTION('ref_axis',(-1.,0.,0.));
#980=DIRECTION('',(1.,0.,0.));
#981=DIRECTION('',(-1.,0.,0.));
#982=DIRECTION('',(0.,-1.,0.));
#983=DIRECTION('center_axis',(1.,0.,0.));
#984=DIRECTION('ref_axis',(0.,0.,1.));
#985=DIRECTION('',(0.,0.,-1.));
#986=DIRECTION('',(0.,0.,1.));
#987=DIRECTION('center_axis',(0.,-1.,0.));
#988=DIRECTION('ref_axis',(0.,0.,-1.));
#989=DIRECTION('center_axis',(0.,0.,-1.));
#990=DIRECTION('ref_axis',(1.,0.,0.));
#991=DIRECTION('',(-1.,0.,0.));
#992=DIRECTION('',(0.,-1.,0.));
#993=DIRECTION('',(1.,0.,0.));
#994=DIRECTION('',(0.,-1.,0.));
#995=DIRECTION('center_axis',(-1.,0.,0.));
#996=DIRECTION('ref_axis',(0.,0.,-1.));
#997=DIRECTION('',(0.,0.,1.));
#998=DIRECTION('',(0.,0.,-1.));
#999=DIRECTION('',(0.,-1.,0.));
#1000=DIRECTION('center_axis',(0.,0.,1.));
#1001=DIRECTION('ref_axis',(-1.,0.,0.));
#1002=DIRECTION('',(1.,0.,0.));
#1003=DIRECTION('',(-1.,0.,0.));
#1004=DIRECTION('',(0.,-1.,0.));
#1005=DIRECTION('center_axis',(1.,0.,0.));
#1006=DIRECTION('ref_axis',(0.,0.,1.));
#1007=DIRECTION('',(0.,0.,-1.));
#1008=DIRECTION('',(0.,0.,1.));
#1009=DIRECTION('center_axis',(0.,-1.,0.));
#1010=DIRECTION('ref_axis',(0.,0.,-1.));
#1011=DIRECTION('center_axis',(0.,0.,-1.));
#1012=DIRECTION('ref_axis',(1.,0.,0.));
#1013=DIRECTION('',(-1.,0.,0.));
#1014=DIRECTION('',(0.,-1.,0.));
#1015=DIRECTION('',(1.,0.,0.));
#1016=DIRECTION('',(0.,-1.,0.));
#1017=DIRECTION('center_axis',(-1.,0.,0.));
#1018=DIRECTION('ref_axis',(0.,0.,-1.));
#1019=DIRECTION('',(0.,0.,1.));
#1020=DIRECTION('',(0.,0.,-1.));
#1021=DIRECTION('',(0.,-1.,0.));
#1022=DIRECTION('center_axis',(0.,0.,1.));
#1023=DIRECTION('ref_axis',(-1.,0.,0.));
#1024=DIRECTION('',(1.,0.,0.));
#1025=DIRECTION('',(-1.,0.,0.));
#1026=DIRECTION('',(0.,-1.,0.));
#1027=DIRECTION('center_axis',(1.,0.,0.));
#1028=DIRECTION('ref_axis',(0.,0.,1.));
#1029=DIRECTION('',(0.,0.,-1.));
#1030=DIRECTION('',(0.,0.,1.));
#1031=DIRECTION('center_axis',(0.,-1.,0.));
#1032=DIRECTION('ref_axis',(0.,0.,-1.));
#1033=DIRECTION('center_axis',(0.577350269189626,-0.577350269189626,-0.577350269189626));
#1034=DIRECTION('ref_axis',(-0.707106781186547,0.,-0.707106781186547));
#1035=DIRECTION('',(-0.707106781186548,0.,-0.707106781186548));
#1036=DIRECTION('',(0.707106781186548,0.707106781186547,0.));
#1037=DIRECTION('',(0.,-0.707106781186547,0.707106781186548));
#1038=DIRECTION('center_axis',(-0.577350269189626,-0.577350269189626,-0.577350269189626));
#1039=DIRECTION('ref_axis',(-0.707106781186547,0.,0.707106781186547));
#1040=DIRECTION('',(-0.707106781186548,0.,0.707106781186548));
#1041=DIRECTION('',(0.,0.707106781186547,-0.707106781186548));
#1042=DIRECTION('',(0.707106781186548,-0.707106781186547,0.));
#1043=DIRECTION('center_axis',(0.,-0.707106781186548,-0.707106781186547));
#1044=DIRECTION('ref_axis',(-1.,0.,0.));
#1045=DIRECTION('',(1.,0.,0.));
#1046=DIRECTION('',(-1.,0.,0.));
#1047=DIRECTION('center_axis',(0.577350269189626,-0.577350269189626,0.577350269189626));
#1048=DIRECTION('ref_axis',(0.707106781186548,0.,-0.707106781186548));
#1049=DIRECTION('',(0.,0.707106781186547,0.707106781186548));
#1050=DIRECTION('',(-0.707106781186548,-0.707106781186547,0.));
#1051=DIRECTION('',(0.707106781186548,0.,-0.707106781186548));
#1052=DIRECTION('center_axis',(0.707106781186547,-0.707106781186548,0.));
#1053=DIRECTION('ref_axis',(0.,0.,-1.));
#1054=DIRECTION('',(0.,0.,1.));
#1055=DIRECTION('',(0.,0.,-1.));
#1056=DIRECTION('center_axis',(0.577350269189626,0.577350269189626,-0.577350269189626));
#1057=DIRECTION('ref_axis',(-0.707106781186547,0.,-0.707106781186547));
#1058=DIRECTION('',(-0.707106781186548,0.707106781186548,0.));
#1059=DIRECTION('',(0.707106781186548,0.,0.707106781186548));
#1060=DIRECTION('',(0.,-0.707106781186548,-0.707106781186548));
#1061=DIRECTION('center_axis',(0.707106781186548,0.,-0.707106781186548));
#1062=DIRECTION('ref_axis',(-0.707106781186548,0.,-0.707106781186548));
#1063=DIRECTION('',(0.,-1.,0.));
#1064=DIRECTION('',(0.,1.,0.));
#1065=DIRECTION('center_axis',(-0.577350269189626,-0.577350269189626,0.577350269189626));
#1066=DIRECTION('ref_axis',(0.707106781186547,0.,0.707106781186547));
#1067=DIRECTION('',(0.707106781186548,0.,0.707106781186548));
#1068=DIRECTION('',(-0.707106781186548,0.707106781186547,0.));
#1069=DIRECTION('',(0.,-0.707106781186547,-0.707106781186548));
#1070=DIRECTION('center_axis',(-0.707106781186547,-0.707106781186548,0.));
#1071=DIRECTION('ref_axis',(0.,0.,1.));
#1072=DIRECTION('',(0.,0.,-1.));
#1073=DIRECTION('',(0.,0.,1.));
#1074=DIRECTION('center_axis',(0.,-0.707106781186548,0.707106781186547));
#1075=DIRECTION('ref_axis',(1.,0.,0.));
#1076=DIRECTION('',(-1.,0.,0.));
#1077=DIRECTION('',(1.,0.,0.));
#1078=DIRECTION('center_axis',(-0.577350269189626,0.577350269189626,-0.577350269189626));
#1079=DIRECTION('ref_axis',(-0.707106781186547,0.,0.707106781186547));
#1080=DIRECTION('',(0.,0.707106781186548,0.707106781186548));
#1081=DIRECTION('',(0.707106781186548,0.,-0.707106781186548));
#1082=DIRECTION('',(-0.707106781186548,-0.707106781186548,0.));
#1083=DIRECTION('center_axis',(-0.707106781186548,0.,-0.707106781186548));
#1084=DIRECTION('ref_axis',(-0.707106781186548,0.,0.707106781186548));
#1085=DIRECTION('',(0.,-1.,0.));
#1086=DIRECTION('',(0.,1.,0.));
#1087=DIRECTION('center_axis',(0.577350269189626,0.577350269189626,0.577350269189626));
#1088=DIRECTION('ref_axis',(0.707106781186547,0.,-0.707106781186547));
#1089=DIRECTION('',(0.,0.707106781186548,-0.707106781186548));
#1090=DIRECTION('',(-0.707106781186548,0.,0.707106781186548));
#1091=DIRECTION('',(0.707106781186548,-0.707106781186548,0.));
#1092=DIRECTION('center_axis',(0.707106781186548,0.,0.707106781186548));
#1093=DIRECTION('ref_axis',(0.707106781186548,0.,-0.707106781186548));
#1094=DIRECTION('',(0.,-1.,0.));
#1095=DIRECTION('',(0.,1.,0.));
#1096=DIRECTION('center_axis',(0.707106781186548,0.707106781186548,0.));
#1097=DIRECTION('ref_axis',(0.,0.,-1.));
#1098=DIRECTION('',(0.,0.,1.));
#1099=DIRECTION('',(0.,0.,-1.));
#1100=DIRECTION('center_axis',(-0.577350269189626,0.577350269189626,0.577350269189626));
#1101=DIRECTION('ref_axis',(0.707106781186547,0.,0.707106781186547));
#1102=DIRECTION('',(0.707106781186548,0.707106781186548,0.));
#1103=DIRECTION('',(-0.707106781186548,0.,-0.707106781186548));
#1104=DIRECTION('',(0.,-0.707106781186548,0.707106781186548));
#1105=DIRECTION('center_axis',(-0.707106781186548,0.,0.707106781186548));
#1106=DIRECTION('ref_axis',(0.707106781186548,0.,0.707106781186548));
#1107=DIRECTION('',(0.,-1.,0.));
#1108=DIRECTION('',(0.,1.,0.));
#1109=DIRECTION('center_axis',(0.,0.707106781186548,0.707106781186548));
#1110=DIRECTION('ref_axis',(1.,0.,0.));
#1111=DIRECTION('',(-1.,0.,0.));
#1112=DIRECTION('',(1.,0.,0.));
#1113=DIRECTION('center_axis',(-0.707106781186548,0.707106781186548,0.));
#1114=DIRECTION('ref_axis',(0.,0.,1.));
#1115=DIRECTION('',(0.,0.,-1.));
#1116=DIRECTION('',(0.,0.,1.));
#1117=DIRECTION('center_axis',(0.,0.707106781186548,-0.707106781186548));
#1118=DIRECTION('ref_axis',(-1.,0.,0.));
#1119=DIRECTION('',(1.,0.,0.));
#1120=DIRECTION('',(-1.,0.,0.));
#1121=DIRECTION('center_axis',(0.,0.,-1.));
#1122=DIRECTION('ref_axis',(-1.,0.,0.));
#1123=DIRECTION('center_axis',(0.,1.,0.));
#1124=DIRECTION('ref_axis',(1.,0.,0.));
#1125=DIRECTION('center_axis',(1.,0.,0.));
#1126=DIRECTION('ref_axis',(0.,0.,-1.));
#1127=DIRECTION('center_axis',(-1.,0.,0.));
#1128=DIRECTION('ref_axis',(0.,0.,1.));
#1129=DIRECTION('center_axis',(0.,0.,1.));
#1130=DIRECTION('ref_axis',(1.,0.,0.));
#1131=DIRECTION('center_axis',(0.,1.,0.));
#1132=DIRECTION('ref_axis',(0.,0.,1.));
#1133=DIRECTION('',(1.,0.,0.));
#1134=DIRECTION('',(0.,0.,1.));
#1135=DIRECTION('',(-1.,0.,0.));
#1136=DIRECTION('',(-1.,0.,0.));
#1137=DIRECTION('',(0.,0.,-1.));
#1138=DIRECTION('',(1.,0.,0.));
#1139=DIRECTION('center_axis',(0.,0.707106781186547,-0.707106781186548));
#1140=DIRECTION('ref_axis',(-1.,0.,0.));
#1141=DIRECTION('',(1.,0.,0.));
#1142=DIRECTION('',(0.577350269189626,-0.577350269189626,-0.577350269189626));
#1143=DIRECTION('',(-1.,0.,0.));
#1144=DIRECTION('',(-0.577350269189626,-0.577350269189626,-0.577350269189626));
#1145=DIRECTION('center_axis',(0.707106781186548,0.707106781186548,0.));
#1146=DIRECTION('ref_axis',(0.,0.,-1.));
#1147=DIRECTION('',(0.,0.,1.));
#1148=DIRECTION('',(0.577350269189626,-0.577350269189626,0.577350269189626));
#1149=DIRECTION('',(0.,0.,-1.));
#1150=DIRECTION('center_axis',(0.,0.707106781186547,0.707106781186548));
#1151=DIRECTION('ref_axis',(1.,0.,0.));
#1152=DIRECTION('',(-1.,0.,0.));
#1153=DIRECTION('',(-0.577350269189626,-0.577350269189626,0.577350269189626));
#1154=DIRECTION('',(1.,0.,0.));
#1155=DIRECTION('center_axis',(-0.707106781186548,0.707106781186547,0.));
#1156=DIRECTION('ref_axis',(0.,0.,1.));
#1157=DIRECTION('',(0.,0.,1.));
#1158=DIRECTION('',(0.,0.,-1.));
#1159=DIRECTION('center_axis',(1.,0.,0.));
#1160=DIRECTION('ref_axis',(0.,0.,1.));
#1161=DIRECTION('',(0.,1.,0.));
#1162=DIRECTION('',(0.,-1.,0.));
#1163=DIRECTION('',(0.,0.,1.));
#1164=DIRECTION('',(0.,-1.,0.));
#1165=DIRECTION('',(0.,1.,0.));
#1166=DIRECTION('center_axis',(0.,0.,-1.));
#1167=DIRECTION('ref_axis',(-1.,0.,0.));
#1168=DIRECTION('',(0.,1.,0.));
#1169=DIRECTION('center_axis',(0.,1.,0.));
#1170=DIRECTION('ref_axis',(0.,0.,1.));
#1171=DIRECTION('center_axis',(0.,0.,1.));
#1172=DIRECTION('ref_axis',(1.,0.,0.));
#1173=DIRECTION('',(0.,1.,0.));
#1174=DIRECTION('center_axis',(1.,0.,0.));
#1175=DIRECTION('ref_axis',(0.,0.,-1.));
#1176=DIRECTION('center_axis',(-1.,0.,0.));
#1177=DIRECTION('ref_axis',(0.,0.,-1.));
#1178=DIRECTION('',(0.,-1.,0.));
#1179=DIRECTION('',(0.,0.,-1.));
#1180=DIRECTION('',(0.,-1.,0.));
#1181=DIRECTION('center_axis',(0.,0.,1.));
#1182=DIRECTION('ref_axis',(-1.,0.,0.));
#1183=DIRECTION('',(-1.,0.,0.));
#1184=DIRECTION('center_axis',(0.,0.,-1.));
#1185=DIRECTION('ref_axis',(1.,0.,0.));
#1186=DIRECTION('',(1.,0.,0.));
#1187=DIRECTION('center_axis',(0.,-1.,0.));
#1188=DIRECTION('ref_axis',(0.,0.,-1.));
#1189=CARTESIAN_POINT('',(0.,0.,0.));
#1190=CARTESIAN_POINT('Origin',(2.4,0.,-0.1));
#1191=CARTESIAN_POINT('',(2.7,0.,-0.1));
#1192=CARTESIAN_POINT('',(2.4,0.,-0.1));
#1193=CARTESIAN_POINT('',(1.2,0.,-0.1));
#1194=CARTESIAN_POINT('',(2.7,-5.,-0.1));
#1195=CARTESIAN_POINT('',(2.7,0.,-0.1));
#1196=CARTESIAN_POINT('',(2.4,-5.,-0.1));
#1197=CARTESIAN_POINT('',(2.4,-5.,-0.1));
#1198=CARTESIAN_POINT('',(2.4,0.,-0.1));
#1199=CARTESIAN_POINT('Origin',(2.4,0.,0.1));
#1200=CARTESIAN_POINT('',(2.4,0.,0.1));
#1201=CARTESIAN_POINT('',(2.4,0.,0.05));
#1202=CARTESIAN_POINT('',(2.4,-5.,0.1));
#1203=CARTESIAN_POINT('',(2.4,-5.,0.1));
#1204=CARTESIAN_POINT('',(2.4,0.,0.1));
#1205=CARTESIAN_POINT('Origin',(2.7,0.,0.1));
#1206=CARTESIAN_POINT('',(2.7,0.,0.1));
#1207=CARTESIAN_POINT('',(1.35,0.,0.1));
#1208=CARTESIAN_POINT('',(2.7,-5.,0.1));
#1209=CARTESIAN_POINT('',(2.7,-5.,0.1));
#1210=CARTESIAN_POINT('',(2.7,0.,0.1));
#1211=CARTESIAN_POINT('Origin',(2.7,0.,-0.1));
#1212=CARTESIAN_POINT('',(2.7,0.,-0.05));
#1213=CARTESIAN_POINT('',(2.7,-5.,-0.1));
#1214=CARTESIAN_POINT('Origin',(2.55,-5.,0.));
#1215=CARTESIAN_POINT('Origin',(-2.85,0.,-0.1));
#1216=CARTESIAN_POINT('',(-2.55,0.,-0.1));
#1217=CARTESIAN_POINT('',(-2.85,0.,-0.1));
#1218=CARTESIAN_POINT('',(-1.425,0.,-0.1));
#1219=CARTESIAN_POINT('',(-2.55,-5.,-0.1));
#1220=CARTESIAN_POINT('',(-2.55,0.,-0.1));
#1221=CARTESIAN_POINT('',(-2.85,-5.,-0.1));
#1222=CARTESIAN_POINT('',(-2.85,-5.,-0.1));
#1223=CARTESIAN_POINT('',(-2.85,0.,-0.1));
#1224=CARTESIAN_POINT('Origin',(-2.85,0.,0.1));
#1225=CARTESIAN_POINT('',(-2.85,0.,0.1));
#1226=CARTESIAN_POINT('',(-2.85,0.,0.05));
#1227=CARTESIAN_POINT('',(-2.85,-5.,0.1));
#1228=CARTESIAN_POINT('',(-2.85,-5.,0.1));
#1229=CARTESIAN_POINT('',(-2.85,0.,0.1));
#1230=CARTESIAN_POINT('Origin',(-2.55,0.,0.1));
#1231=CARTESIAN_POINT('',(-2.55,0.,0.1));
#1232=CARTESIAN_POINT('',(-1.275,0.,0.1));
#1233=CARTESIAN_POINT('',(-2.55,-5.,0.1));
#1234=CARTESIAN_POINT('',(-2.55,-5.,0.1));
#1235=CARTESIAN_POINT('',(-2.55,0.,0.1));
#1236=CARTESIAN_POINT('Origin',(-2.55,0.,-0.1));
#1237=CARTESIAN_POINT('',(-2.55,0.,-0.05));
#1238=CARTESIAN_POINT('',(-2.55,-5.,-0.1));
#1239=CARTESIAN_POINT('Origin',(-2.7,-5.,0.));
#1240=CARTESIAN_POINT('Origin',(-0.15,0.,-0.1));
#1241=CARTESIAN_POINT('',(0.15,0.,-0.1));
#1242=CARTESIAN_POINT('',(-0.15,0.,-0.1));
#1243=CARTESIAN_POINT('',(-0.075,0.,-0.1));
#1244=CARTESIAN_POINT('',(0.15,-5.,-0.1));
#1245=CARTESIAN_POINT('',(0.15,0.,-0.1));
#1246=CARTESIAN_POINT('',(-0.15,-5.,-0.1));
#1247=CARTESIAN_POINT('',(-0.15,-5.,-0.1));
#1248=CARTESIAN_POINT('',(-0.15,0.,-0.1));
#1249=CARTESIAN_POINT('Origin',(-0.15,0.,0.1));
#1250=CARTESIAN_POINT('',(-0.15,0.,0.1));
#1251=CARTESIAN_POINT('',(-0.15,0.,0.05));
#1252=CARTESIAN_POINT('',(-0.15,-5.,0.1));
#1253=CARTESIAN_POINT('',(-0.15,-5.,0.1));
#1254=CARTESIAN_POINT('',(-0.15,0.,0.1));
#1255=CARTESIAN_POINT('Origin',(0.15,0.,0.1));
#1256=CARTESIAN_POINT('',(0.15,0.,0.1));
#1257=CARTESIAN_POINT('',(0.075,0.,0.1));
#1258=CARTESIAN_POINT('',(0.15,-5.,0.1));
#1259=CARTESIAN_POINT('',(0.15,-5.,0.1));
#1260=CARTESIAN_POINT('',(0.15,0.,0.1));
#1261=CARTESIAN_POINT('Origin',(0.15,0.,-0.1));
#1262=CARTESIAN_POINT('',(0.15,0.,-0.05));
#1263=CARTESIAN_POINT('',(0.15,-5.,-0.1));
#1264=CARTESIAN_POINT('Origin',(0.,-5.,0.));
#1265=CARTESIAN_POINT('Origin',(4.15,0.,-1.75));
#1266=CARTESIAN_POINT('',(4.25,0.1,-1.75));
#1267=CARTESIAN_POINT('',(4.15,0.1,-1.85));
#1268=CARTESIAN_POINT('',(4.25,0.1,-1.75));
#1269=CARTESIAN_POINT('',(4.15,0.,-1.75));
#1270=CARTESIAN_POINT('',(4.15,0.,-1.75));
#1271=CARTESIAN_POINT('',(4.15,0.1,-1.85));
#1272=CARTESIAN_POINT('Origin',(-4.15,0.,-1.75));
#1273=CARTESIAN_POINT('',(-4.15,0.1,-1.85));
#1274=CARTESIAN_POINT('',(-4.25,0.1,-1.75));
#1275=CARTESIAN_POINT('',(-4.15,0.1,-1.85));
#1276=CARTESIAN_POINT('',(-4.15,0.,-1.75));
#1277=CARTESIAN_POINT('',(-4.15,0.,-1.75));
#1278=CARTESIAN_POINT('',(-4.25,0.1,-1.75));
#1279=CARTESIAN_POINT('Origin',(2.125,0.05,-1.8));
#1280=CARTESIAN_POINT('',(2.125,0.1,-1.85));
#1281=CARTESIAN_POINT('',(2.125,0.,-1.75));
#1282=CARTESIAN_POINT('Origin',(4.25,0.1,1.75));
#1283=CARTESIAN_POINT('',(4.15,0.,1.75));
#1284=CARTESIAN_POINT('',(4.15,0.1,1.85));
#1285=CARTESIAN_POINT('',(4.15,0.,1.75));
#1286=CARTESIAN_POINT('',(4.25,0.1,1.75));
#1287=CARTESIAN_POINT('',(4.25,0.1,1.75));
#1288=CARTESIAN_POINT('',(4.15,0.1,1.85));
#1289=CARTESIAN_POINT('Origin',(4.2,0.05,0.925));
#1290=CARTESIAN_POINT('',(4.25,0.1,0.925));
#1291=CARTESIAN_POINT('',(4.15,0.,0.925));
#1292=CARTESIAN_POINT('Origin',(4.15,3.2,-1.85));
#1293=CARTESIAN_POINT('',(4.25,3.2,-1.75));
#1294=CARTESIAN_POINT('',(4.15,3.3,-1.75));
#1295=CARTESIAN_POINT('',(4.25,3.2,-1.75));
#1296=CARTESIAN_POINT('',(4.15,3.2,-1.85));
#1297=CARTESIAN_POINT('',(4.15,3.2,-1.85));
#1298=CARTESIAN_POINT('',(4.15,3.3,-1.75));
#1299=CARTESIAN_POINT('Origin',(4.2,0.,-1.8));
#1300=CARTESIAN_POINT('',(4.25,0.,-1.75));
#1301=CARTESIAN_POINT('',(4.15,0.,-1.85));
#1302=CARTESIAN_POINT('Origin',(-4.15,0.,1.75));
#1303=CARTESIAN_POINT('',(-4.25,0.1,1.75));
#1304=CARTESIAN_POINT('',(-4.15,0.1,1.85));
#1305=CARTESIAN_POINT('',(-4.25,0.1,1.75));
#1306=CARTESIAN_POINT('',(-4.15,0.,1.75));
#1307=CARTESIAN_POINT('',(-4.15,0.,1.75));
#1308=CARTESIAN_POINT('',(-4.15,0.1,1.85));
#1309=CARTESIAN_POINT('Origin',(-4.2,0.05,-0.925));
#1310=CARTESIAN_POINT('',(-4.25,0.1,-0.925));
#1311=CARTESIAN_POINT('',(-4.15,0.,-0.925));
#1312=CARTESIAN_POINT('Origin',(-2.125,0.05,1.8));
#1313=CARTESIAN_POINT('',(-2.125,0.1,1.85));
#1314=CARTESIAN_POINT('',(-2.125,0.,1.75));
#1315=CARTESIAN_POINT('Origin',(-4.25,3.2,-1.75));
#1316=CARTESIAN_POINT('',(-4.15,3.2,-1.85));
#1317=CARTESIAN_POINT('',(-4.15,3.3,-1.75));
#1318=CARTESIAN_POINT('',(-4.15,3.2,-1.85));
#1319=CARTESIAN_POINT('',(-4.25,3.2,-1.75));
#1320=CARTESIAN_POINT('',(-4.25,3.2,-1.75));
#1321=CARTESIAN_POINT('',(-4.15,3.3,-1.75));
#1322=CARTESIAN_POINT('Origin',(-4.2,0.,-1.8));
#1323=CARTESIAN_POINT('',(-4.15,0.,-1.85));
#1324=CARTESIAN_POINT('',(-4.25,0.,-1.75));
#1325=CARTESIAN_POINT('Origin',(4.25,3.2,1.75));
#1326=CARTESIAN_POINT('',(4.15,3.2,1.85));
#1327=CARTESIAN_POINT('',(4.15,3.3,1.75));
#1328=CARTESIAN_POINT('',(4.15,3.2,1.85));
#1329=CARTESIAN_POINT('',(4.25,3.2,1.75));
#1330=CARTESIAN_POINT('',(4.25,3.2,1.75));
#1331=CARTESIAN_POINT('',(4.15,3.3,1.75));
#1332=CARTESIAN_POINT('Origin',(4.2,0.,1.8));
#1333=CARTESIAN_POINT('',(4.15,0.,1.85));
#1334=CARTESIAN_POINT('',(4.25,0.,1.75));
#1335=CARTESIAN_POINT('Origin',(4.2,3.25,0.925));
#1336=CARTESIAN_POINT('',(4.15,3.3,0.925));
#1337=CARTESIAN_POINT('',(4.25,3.2,0.925));
#1338=CARTESIAN_POINT('Origin',(-4.15,3.2,1.85));
#1339=CARTESIAN_POINT('',(-4.25,3.2,1.75));
#1340=CARTESIAN_POINT('',(-4.15,3.3,1.75));
#1341=CARTESIAN_POINT('',(-4.25,3.2,1.75));
#1342=CARTESIAN_POINT('',(-4.15,3.2,1.85));
#1343=CARTESIAN_POINT('',(-4.15,3.2,1.85));
#1344=CARTESIAN_POINT('',(-4.15,3.3,1.75));
#1345=CARTESIAN_POINT('Origin',(-4.2,0.,1.8));
#1346=CARTESIAN_POINT('',(-4.25,0.,1.75));
#1347=CARTESIAN_POINT('',(-4.15,0.,1.85));
#1348=CARTESIAN_POINT('Origin',(-2.125,3.25,1.8));
#1349=CARTESIAN_POINT('',(-2.125,3.3,1.75));
#1350=CARTESIAN_POINT('',(-2.125,3.2,1.85));
#1351=CARTESIAN_POINT('Origin',(-4.2,3.25,-0.925));
#1352=CARTESIAN_POINT('',(-4.15,3.3,-0.925));
#1353=CARTESIAN_POINT('',(-4.25,3.2,-0.925));
#1354=CARTESIAN_POINT('Origin',(2.125,3.25,-1.8));
#1355=CARTESIAN_POINT('',(2.125,3.3,-1.75));
#1356=CARTESIAN_POINT('',(2.125,3.2,-1.85));
#1357=CARTESIAN_POINT('Origin',(4.25,0.,-1.85));
#1358=CARTESIAN_POINT('Origin',(0.,0.,0.));
#1359=CARTESIAN_POINT('Origin',(4.25,0.,1.85));
#1360=CARTESIAN_POINT('Origin',(-4.25,0.,-1.85));
#1361=CARTESIAN_POINT('Origin',(-4.25,0.,1.85));
#1362=CARTESIAN_POINT('Origin',(0.,3.3,0.));
#1363=CARTESIAN_POINT('',(0.45,3.3,-0.65));
#1364=CARTESIAN_POINT('',(1.75,3.3,-0.65));
#1365=CARTESIAN_POINT('',(0.875,3.3,-0.65));
#1366=CARTESIAN_POINT('',(1.75,3.3,0.65));
#1367=CARTESIAN_POINT('',(1.75,3.3,0.325));
#1368=CARTESIAN_POINT('',(0.45,3.3,0.65));
#1369=CARTESIAN_POINT('',(0.225,3.3,0.65));
#1370=CARTESIAN_POINT('',(-1.75,3.3,0.65));
#1371=CARTESIAN_POINT('',(0.225,3.3,0.65));
#1372=CARTESIAN_POINT('',(-1.75,3.3,-0.65));
#1373=CARTESIAN_POINT('',(-1.75,3.3,0.325));
#1374=CARTESIAN_POINT('',(-0.875,3.3,-0.65));
#1375=CARTESIAN_POINT('Origin',(1.425,6.2,-0.55));
#1376=CARTESIAN_POINT('',(0.65,6.3,-0.45));
#1377=CARTESIAN_POINT('',(1.55,6.3,-0.45));
#1378=CARTESIAN_POINT('',(1.425,6.3,-0.45));
#1379=CARTESIAN_POINT('',(1.75,6.1,-0.65));
#1380=CARTESIAN_POINT('',(1.55,6.3,-0.45));
#1381=CARTESIAN_POINT('',(0.45,6.1,-0.65));
#1382=CARTESIAN_POINT('',(1.425,6.1,-0.65));
#1383=CARTESIAN_POINT('',(0.65,6.3,-0.45));
#1384=CARTESIAN_POINT('Origin',(1.65,6.2,0.325));
#1385=CARTESIAN_POINT('',(1.55,6.3,0.45));
#1386=CARTESIAN_POINT('',(1.55,6.3,0.325));
#1387=CARTESIAN_POINT('',(1.75,6.1,0.65));
#1388=CARTESIAN_POINT('',(1.55,6.3,0.45));
#1389=CARTESIAN_POINT('',(1.75,6.1,0.325));
#1390=CARTESIAN_POINT('Origin',(0.775,6.2,0.55));
#1391=CARTESIAN_POINT('',(0.65,6.3,0.45));
#1392=CARTESIAN_POINT('',(0.775,6.3,0.45));
#1393=CARTESIAN_POINT('',(0.45,6.1,0.65));
#1394=CARTESIAN_POINT('',(0.65,6.3,0.45));
#1395=CARTESIAN_POINT('',(0.775,6.1,0.65));
#1396=CARTESIAN_POINT('Origin',(0.55,6.2,-0.325));
#1397=CARTESIAN_POINT('',(0.45,6.1,-0.325));
#1398=CARTESIAN_POINT('',(0.65,6.3,-0.325));
#1399=CARTESIAN_POINT('Origin',(0.45,3.3,-0.65));
#1400=CARTESIAN_POINT('',(0.45,3.3,-0.65));
#1401=CARTESIAN_POINT('',(0.45,3.2,-0.65));
#1402=CARTESIAN_POINT('',(0.45,3.3,-0.65));
#1403=CARTESIAN_POINT('',(0.45,3.2,0.65));
#1404=CARTESIAN_POINT('',(0.45,3.2,-0.65));
#1405=CARTESIAN_POINT('',(0.45,3.3,0.65));
#1406=CARTESIAN_POINT('',(0.45,3.3,0.65));
#1407=CARTESIAN_POINT('Origin',(1.75,3.3,-0.65));
#1408=CARTESIAN_POINT('',(1.75,3.3,-0.65));
#1409=CARTESIAN_POINT('Origin',(1.1,6.3,0.));
#1410=CARTESIAN_POINT('Origin',(0.45,3.3,0.65));
#1411=CARTESIAN_POINT('',(1.75,3.3,0.65));
#1412=CARTESIAN_POINT('Origin',(1.75,3.3,0.65));
#1413=CARTESIAN_POINT('Origin',(-1.75,3.3,0.65));
#1414=CARTESIAN_POINT('',(-1.75,3.2,0.65));
#1415=CARTESIAN_POINT('',(-1.75,3.3,0.65));
#1416=CARTESIAN_POINT('',(-1.75,3.2,-0.65));
#1417=CARTESIAN_POINT('',(-1.75,3.2,-0.65));
#1418=CARTESIAN_POINT('',(-1.75,3.3,-0.65));
#1419=CARTESIAN_POINT('Origin',(0.45,3.3,0.65));
#1420=CARTESIAN_POINT('',(-1.75,3.2,0.65));
#1421=CARTESIAN_POINT('Origin',(-1.75,3.3,-0.65));
#1422=CARTESIAN_POINT('',(-0.45,3.2,-0.65));
#1423=CARTESIAN_POINT('Origin',(-0.65,3.2,0.));
#1424=UNCERTAINTY_MEASURE_WITH_UNIT(LENGTH_MEASURE(0.01),#1428,
'DISTANCE_ACCURACY_VALUE',
'Maximum model space distance between geometric entities at asserted c
onnectivities');
#1425=UNCERTAINTY_MEASURE_WITH_UNIT(LENGTH_MEASURE(0.01),#1428,
'DISTANCE_ACCURACY_VALUE',
'Maximum model space distance between geometric entities at asserted c
onnectivities');
#1426=(
GEOMETRIC_REPRESENTATION_CONTEXT(3)
GLOBAL_UNCERTAINTY_ASSIGNED_CONTEXT((#1424))
GLOBAL_UNIT_ASSIGNED_CONTEXT((#1428,#1430,#1431))
REPRESENTATION_CONTEXT('','3D')
);
#1427=(
GEOMETRIC_REPRESENTATION_CONTEXT(3)
GLOBAL_UNCERTAINTY_ASSIGNED_CONTEXT((#1425))
GLOBAL_UNIT_ASSIGNED_CONTEXT((#1428,#1430,#1431))
REPRESENTATION_CONTEXT('','3D')
);
#1428=(
LENGTH_UNIT()
NAMED_UNIT(*)
SI_UNIT(.MILLI.,.METRE.)
);
#1429=(
LENGTH_UNIT()
NAMED_UNIT(*)
SI_UNIT($,.METRE.)
);
#1430=(
NAMED_UNIT(*)
PLANE_ANGLE_UNIT()
SI_UNIT($,.RADIAN.)
);
#1431=(
NAMED_UNIT(*)
SI_UNIT($,.STERADIAN.)
SOLID_ANGLE_UNIT()
);
#1432=SHAPE_DEFINITION_REPRESENTATION(#1433,#1434);
#1433=PRODUCT_DEFINITION_SHAPE('',$,#1436);
#1434=SHAPE_REPRESENTATION('',(#910),#1426);
#1435=PRODUCT_DEFINITION_CONTEXT('part definition',#1440,'design');
#1436=PRODUCT_DEFINITION('2026-08-16-16-37-15-507','Switch',#1437,#1435);
#1437=PRODUCT_DEFINITION_FORMATION('',$,#1442);
#1438=PRODUCT_RELATED_PRODUCT_CATEGORY('Switch','Switch',(#1442));
#1439=APPLICATION_PROTOCOL_DEFINITION('international standard',
'automotive_design',2009,#1440);
#1440=APPLICATION_CONTEXT(
'Core Data for Automotive Mechanical Design Process');
#1441=PRODUCT_CONTEXT('part definition',#1440,'mechanical');
#1442=PRODUCT('2026-08-16-16-37-15-507','Switch',$,(#1441));
#1443=PRESENTATION_STYLE_ASSIGNMENT((#1447));
#1444=PRESENTATION_STYLE_ASSIGNMENT((#1448));
#1445=PRESENTATION_STYLE_ASSIGNMENT((#1449));
#1446=PRESENTATION_STYLE_ASSIGNMENT((#1450));
#1447=SURFACE_STYLE_USAGE(.BOTH.,#1451);
#1448=SURFACE_STYLE_USAGE(.BOTH.,#1452);
#1449=SURFACE_STYLE_USAGE(.BOTH.,#1453);
#1450=SURFACE_STYLE_USAGE(.BOTH.,#1454);
#1451=SURFACE_SIDE_STYLE('',(#1455));
#1452=SURFACE_SIDE_STYLE('',(#1456));
#1453=SURFACE_SIDE_STYLE('',(#1457));
#1454=SURFACE_SIDE_STYLE('',(#1458));
#1455=SURFACE_STYLE_FILL_AREA(#1459);
#1456=SURFACE_STYLE_FILL_AREA(#1460);
#1457=SURFACE_STYLE_FILL_AREA(#1461);
#1458=SURFACE_STYLE_FILL_AREA(#1462);
#1459=FILL_AREA_STYLE('Steel - Satin',(#1463));
#1460=FILL_AREA_STYLE('Silver - Polished',(#1464));
#1461=FILL_AREA_STYLE('PEEK',(#1465));
#1462=FILL_AREA_STYLE('Paint - Enamel Glossy (Black)',(#1466));
#1463=FILL_AREA_STYLE_COLOUR('Steel - Satin',#1467);
#1464=FILL_AREA_STYLE_COLOUR('Silver - Polished',#1468);
#1465=FILL_AREA_STYLE_COLOUR('PEEK',#1469);
#1466=FILL_AREA_STYLE_COLOUR('Paint - Enamel Glossy (Black)',#1470);
#1467=COLOUR_RGB('Steel - Satin',0.627450980392157,0.627450980392157,0.627450980392157);
#1468=COLOUR_RGB('Silver - Polished',0.984313725490196,0.980392156862745,
0.96078431372549);
#1469=COLOUR_RGB('PEEK',0.6,0.509803921568627,0.368627450980392);
#1470=COLOUR_RGB('Paint - Enamel Glossy (Black)',0.0980392156862745,0.0980392156862745,
0.0980392156862745);
ENDSEC;
END-ISO-10303-21;
