ISO-10303-21;
HEADER;
/* Generated by software containing ST-Developer
 * from STEP Tools, Inc. (www.steptools.com) 
 */

FILE_DESCRIPTION(
/* description */ (''),
/* implementation_level */ '2;1');

FILE_NAME(
/* name */ '096OLEDModule.step',
/* time_stamp */ '2026-10-03T21:47:12+01:00',
/* author */ (''),
/* organization */ (''),
/* preprocessor_version */ 'ST-DEVELOPER v20.2',
/* originating_system */ 'Autodesk Translation Framework v15.15.0.0',
/* authorisation */ '');

FILE_SCHEMA (('AUTOMOTIVE_DESIGN { 1 0 10303 214 3 1 1 }'));
ENDSEC;

DATA;
#10=MECHANICAL_DESIGN_GEOMETRIC_PRESENTATION_REPRESENTATION('',(#13,#14,
#15),#641);
#11=SHAPE_REPRESENTATION_RELATIONSHIP('SRR','None',#648,#12);
#12=ADVANCED_BREP_SHAPE_REPRESENTATION('',(#16,#17,#18),#640);
#13=STYLED_ITEM('',(#658),#16);
#14=STYLED_ITEM('',(#658),#17);
#15=STYLED_ITEM('',(#659),#18);
#16=MANIFOLD_SOLID_BREP('Body1',#387);
#17=MANIFOLD_SOLID_BREP('Body2',#388);
#18=MANIFOLD_SOLID_BREP('Body3',#389);
#19=FACE_BOUND('',#76,.T.);
#20=FACE_BOUND('',#77,.T.);
#21=FACE_BOUND('',#78,.T.);
#22=FACE_BOUND('',#79,.T.);
#23=FACE_BOUND('',#81,.T.);
#24=FACE_BOUND('',#82,.T.);
#25=FACE_BOUND('',#83,.T.);
#26=FACE_BOUND('',#84,.T.);
#27=PLANE('',#415);
#28=PLANE('',#416);
#29=PLANE('',#417);
#30=PLANE('',#418);
#31=PLANE('',#419);
#32=PLANE('',#420);
#33=PLANE('',#421);
#34=PLANE('',#422);
#35=PLANE('',#423);
#36=PLANE('',#424);
#37=PLANE('',#425);
#38=PLANE('',#426);
#39=PLANE('',#427);
#40=PLANE('',#428);
#41=PLANE('',#429);
#42=PLANE('',#430);
#43=PLANE('',#431);
#44=PLANE('',#432);
#45=FACE_OUTER_BOUND('',#67,.T.);
#46=FACE_OUTER_BOUND('',#68,.T.);
#47=FACE_OUTER_BOUND('',#69,.T.);
#48=FACE_OUTER_BOUND('',#70,.T.);
#49=FACE_OUTER_BOUND('',#71,.T.);
#50=FACE_OUTER_BOUND('',#72,.T.);
#51=FACE_OUTER_BOUND('',#73,.T.);
#52=FACE_OUTER_BOUND('',#74,.T.);
#53=FACE_OUTER_BOUND('',#75,.T.);
#54=FACE_OUTER_BOUND('',#80,.T.);
#55=FACE_OUTER_BOUND('',#85,.T.);
#56=FACE_OUTER_BOUND('',#86,.T.);
#57=FACE_OUTER_BOUND('',#87,.T.);
#58=FACE_OUTER_BOUND('',#88,.T.);
#59=FACE_OUTER_BOUND('',#89,.T.);
#60=FACE_OUTER_BOUND('',#90,.T.);
#61=FACE_OUTER_BOUND('',#91,.T.);
#62=FACE_OUTER_BOUND('',#92,.T.);
#63=FACE_OUTER_BOUND('',#93,.T.);
#64=FACE_OUTER_BOUND('',#94,.T.);
#65=FACE_OUTER_BOUND('',#95,.T.);
#66=FACE_OUTER_BOUND('',#96,.T.);
#67=EDGE_LOOP('',(#265,#266,#267,#268));
#68=EDGE_LOOP('',(#269,#270,#271,#272));
#69=EDGE_LOOP('',(#273,#274,#275,#276));
#70=EDGE_LOOP('',(#277,#278,#279,#280));
#71=EDGE_LOOP('',(#281,#282,#283,#284));
#72=EDGE_LOOP('',(#285,#286,#287,#288));
#73=EDGE_LOOP('',(#289,#290,#291,#292));
#74=EDGE_LOOP('',(#293,#294,#295,#296));
#75=EDGE_LOOP('',(#297,#298,#299,#300));
#76=EDGE_LOOP('',(#301));
#77=EDGE_LOOP('',(#302));
#78=EDGE_LOOP('',(#303));
#79=EDGE_LOOP('',(#304));
#80=EDGE_LOOP('',(#305,#306,#307,#308));
#81=EDGE_LOOP('',(#309));
#82=EDGE_LOOP('',(#310));
#83=EDGE_LOOP('',(#311));
#84=EDGE_LOOP('',(#312));
#85=EDGE_LOOP('',(#313,#314,#315,#316));
#86=EDGE_LOOP('',(#317,#318,#319,#320));
#87=EDGE_LOOP('',(#321,#322,#323,#324));
#88=EDGE_LOOP('',(#325,#326,#327,#328));
#89=EDGE_LOOP('',(#329,#330,#331,#332));
#90=EDGE_LOOP('',(#333,#334,#335,#336));
#91=EDGE_LOOP('',(#337,#338,#339,#340));
#92=EDGE_LOOP('',(#341,#342,#343,#344));
#93=EDGE_LOOP('',(#345,#346,#347,#348));
#94=EDGE_LOOP('',(#349,#350,#351,#352));
#95=EDGE_LOOP('',(#353,#354,#355,#356));
#96=EDGE_LOOP('',(#357,#358,#359,#360));
#97=LINE('',#540,#137);
#98=LINE('',#546,#138);
#99=LINE('',#552,#139);
#100=LINE('',#558,#140);
#101=LINE('',#563,#141);
#102=LINE('',#565,#142);
#103=LINE('',#567,#143);
#104=LINE('',#568,#144);
#105=LINE('',#571,#145);
#106=LINE('',#573,#146);
#107=LINE('',#574,#147);
#108=LINE('',#577,#148);
#109=LINE('',#579,#149);
#110=LINE('',#580,#150);
#111=LINE('',#582,#151);
#112=LINE('',#583,#152);
#113=LINE('',#589,#153);
#114=LINE('',#591,#154);
#115=LINE('',#593,#155);
#116=LINE('',#594,#156);
#117=LINE('',#597,#157);
#118=LINE('',#599,#158);
#119=LINE('',#600,#159);
#120=LINE('',#603,#160);
#121=LINE('',#605,#161);
#122=LINE('',#606,#162);
#123=LINE('',#608,#163);
#124=LINE('',#609,#164);
#125=LINE('',#615,#165);
#126=LINE('',#617,#166);
#127=LINE('',#619,#167);
#128=LINE('',#620,#168);
#129=LINE('',#623,#169);
#130=LINE('',#625,#170);
#131=LINE('',#626,#171);
#132=LINE('',#629,#172);
#133=LINE('',#631,#173);
#134=LINE('',#632,#174);
#135=LINE('',#634,#175);
#136=LINE('',#635,#176);
#137=VECTOR('',#439,1.);
#138=VECTOR('',#446,1.);
#139=VECTOR('',#453,1.);
#140=VECTOR('',#460,1.);
#141=VECTOR('',#465,10.);
#142=VECTOR('',#466,10.);
#143=VECTOR('',#467,10.);
#144=VECTOR('',#468,10.);
#145=VECTOR('',#471,10.);
#146=VECTOR('',#472,10.);
#147=VECTOR('',#473,10.);
#148=VECTOR('',#476,10.);
#149=VECTOR('',#477,10.);
#150=VECTOR('',#478,10.);
#151=VECTOR('',#481,10.);
#152=VECTOR('',#482,10.);
#153=VECTOR('',#489,10.);
#154=VECTOR('',#490,10.);
#155=VECTOR('',#491,10.);
#156=VECTOR('',#492,10.);
#157=VECTOR('',#495,10.);
#158=VECTOR('',#496,10.);
#159=VECTOR('',#497,10.);
#160=VECTOR('',#500,10.);
#161=VECTOR('',#501,10.);
#162=VECTOR('',#502,10.);
#163=VECTOR('',#505,10.);
#164=VECTOR('',#506,10.);
#165=VECTOR('',#513,10.);
#166=VECTOR('',#514,10.);
#167=VECTOR('',#515,10.);
#168=VECTOR('',#516,10.);
#169=VECTOR('',#519,10.);
#170=VECTOR('',#520,10.);
#171=VECTOR('',#521,10.);
#172=VECTOR('',#524,10.);
#173=VECTOR('',#525,10.);
#174=VECTOR('',#526,10.);
#175=VECTOR('',#529,10.);
#176=VECTOR('',#530,10.);
#177=CIRCLE('',#404,1.);
#178=CIRCLE('',#405,1.);
#179=CIRCLE('',#407,1.);
#180=CIRCLE('',#408,1.);
#181=CIRCLE('',#410,1.);
#182=CIRCLE('',#411,1.);
#183=CIRCLE('',#413,1.);
#184=CIRCLE('',#414,1.);
#185=VERTEX_POINT('',#537);
#186=VERTEX_POINT('',#539);
#187=VERTEX_POINT('',#543);
#188=VERTEX_POINT('',#545);
#189=VERTEX_POINT('',#549);
#190=VERTEX_POINT('',#551);
#191=VERTEX_POINT('',#555);
#192=VERTEX_POINT('',#557);
#193=VERTEX_POINT('',#561);
#194=VERTEX_POINT('',#562);
#195=VERTEX_POINT('',#564);
#196=VERTEX_POINT('',#566);
#197=VERTEX_POINT('',#570);
#198=VERTEX_POINT('',#572);
#199=VERTEX_POINT('',#576);
#200=VERTEX_POINT('',#578);
#201=VERTEX_POINT('',#587);
#202=VERTEX_POINT('',#588);
#203=VERTEX_POINT('',#590);
#204=VERTEX_POINT('',#592);
#205=VERTEX_POINT('',#596);
#206=VERTEX_POINT('',#598);
#207=VERTEX_POINT('',#602);
#208=VERTEX_POINT('',#604);
#209=VERTEX_POINT('',#613);
#210=VERTEX_POINT('',#614);
#211=VERTEX_POINT('',#616);
#212=VERTEX_POINT('',#618);
#213=VERTEX_POINT('',#622);
#214=VERTEX_POINT('',#624);
#215=VERTEX_POINT('',#628);
#216=VERTEX_POINT('',#630);
#217=EDGE_CURVE('',#185,#185,#177,.T.);
#218=EDGE_CURVE('',#185,#186,#97,.T.);
#219=EDGE_CURVE('',#186,#186,#178,.T.);
#220=EDGE_CURVE('',#187,#187,#179,.T.);
#221=EDGE_CURVE('',#187,#188,#98,.T.);
#222=EDGE_CURVE('',#188,#188,#180,.T.);
#223=EDGE_CURVE('',#189,#189,#181,.T.);
#224=EDGE_CURVE('',#189,#190,#99,.T.);
#225=EDGE_CURVE('',#190,#190,#182,.T.);
#226=EDGE_CURVE('',#191,#191,#183,.T.);
#227=EDGE_CURVE('',#191,#192,#100,.T.);
#228=EDGE_CURVE('',#192,#192,#184,.T.);
#229=EDGE_CURVE('',#193,#194,#101,.T.);
#230=EDGE_CURVE('',#194,#195,#102,.T.);
#231=EDGE_CURVE('',#196,#195,#103,.T.);
#232=EDGE_CURVE('',#193,#196,#104,.T.);
#233=EDGE_CURVE('',#197,#193,#105,.T.);
#234=EDGE_CURVE('',#198,#196,#106,.T.);
#235=EDGE_CURVE('',#197,#198,#107,.T.);
#236=EDGE_CURVE('',#199,#197,#108,.T.);
#237=EDGE_CURVE('',#200,#198,#109,.T.);
#238=EDGE_CURVE('',#199,#200,#110,.T.);
#239=EDGE_CURVE('',#194,#199,#111,.T.);
#240=EDGE_CURVE('',#195,#200,#112,.T.);
#241=EDGE_CURVE('',#201,#202,#113,.T.);
#242=EDGE_CURVE('',#202,#203,#114,.T.);
#243=EDGE_CURVE('',#204,#203,#115,.T.);
#244=EDGE_CURVE('',#201,#204,#116,.T.);
#245=EDGE_CURVE('',#205,#201,#117,.T.);
#246=EDGE_CURVE('',#206,#204,#118,.T.);
#247=EDGE_CURVE('',#205,#206,#119,.T.);
#248=EDGE_CURVE('',#207,#205,#120,.T.);
#249=EDGE_CURVE('',#208,#206,#121,.T.);
#250=EDGE_CURVE('',#207,#208,#122,.T.);
#251=EDGE_CURVE('',#202,#207,#123,.T.);
#252=EDGE_CURVE('',#203,#208,#124,.T.);
#253=EDGE_CURVE('',#209,#210,#125,.T.);
#254=EDGE_CURVE('',#209,#211,#126,.T.);
#255=EDGE_CURVE('',#212,#211,#127,.T.);
#256=EDGE_CURVE('',#210,#212,#128,.T.);
#257=EDGE_CURVE('',#210,#213,#129,.T.);
#258=EDGE_CURVE('',#214,#212,#130,.T.);
#259=EDGE_CURVE('',#213,#214,#131,.T.);
#260=EDGE_CURVE('',#213,#215,#132,.T.);
#261=EDGE_CURVE('',#216,#214,#133,.T.);
#262=EDGE_CURVE('',#215,#216,#134,.T.);
#263=EDGE_CURVE('',#215,#209,#135,.T.);
#264=EDGE_CURVE('',#211,#216,#136,.T.);
#265=ORIENTED_EDGE('',*,*,#217,.F.);
#266=ORIENTED_EDGE('',*,*,#218,.T.);
#267=ORIENTED_EDGE('',*,*,#219,.F.);
#268=ORIENTED_EDGE('',*,*,#218,.F.);
#269=ORIENTED_EDGE('',*,*,#220,.F.);
#270=ORIENTED_EDGE('',*,*,#221,.T.);
#271=ORIENTED_EDGE('',*,*,#222,.F.);
#272=ORIENTED_EDGE('',*,*,#221,.F.);
#273=ORIENTED_EDGE('',*,*,#223,.F.);
#274=ORIENTED_EDGE('',*,*,#224,.T.);
#275=ORIENTED_EDGE('',*,*,#225,.F.);
#276=ORIENTED_EDGE('',*,*,#224,.F.);
#277=ORIENTED_EDGE('',*,*,#226,.F.);
#278=ORIENTED_EDGE('',*,*,#227,.T.);
#279=ORIENTED_EDGE('',*,*,#228,.F.);
#280=ORIENTED_EDGE('',*,*,#227,.F.);
#281=ORIENTED_EDGE('',*,*,#229,.T.);
#282=ORIENTED_EDGE('',*,*,#230,.T.);
#283=ORIENTED_EDGE('',*,*,#231,.F.);
#284=ORIENTED_EDGE('',*,*,#232,.F.);
#285=ORIENTED_EDGE('',*,*,#233,.T.);
#286=ORIENTED_EDGE('',*,*,#232,.T.);
#287=ORIENTED_EDGE('',*,*,#234,.F.);
#288=ORIENTED_EDGE('',*,*,#235,.F.);
#289=ORIENTED_EDGE('',*,*,#236,.T.);
#290=ORIENTED_EDGE('',*,*,#235,.T.);
#291=ORIENTED_EDGE('',*,*,#237,.F.);
#292=ORIENTED_EDGE('',*,*,#238,.F.);
#293=ORIENTED_EDGE('',*,*,#239,.T.);
#294=ORIENTED_EDGE('',*,*,#238,.T.);
#295=ORIENTED_EDGE('',*,*,#240,.F.);
#296=ORIENTED_EDGE('',*,*,#230,.F.);
#297=ORIENTED_EDGE('',*,*,#240,.T.);
#298=ORIENTED_EDGE('',*,*,#237,.T.);
#299=ORIENTED_EDGE('',*,*,#234,.T.);
#300=ORIENTED_EDGE('',*,*,#231,.T.);
#301=ORIENTED_EDGE('',*,*,#217,.T.);
#302=ORIENTED_EDGE('',*,*,#220,.T.);
#303=ORIENTED_EDGE('',*,*,#223,.T.);
#304=ORIENTED_EDGE('',*,*,#226,.T.);
#305=ORIENTED_EDGE('',*,*,#239,.F.);
#306=ORIENTED_EDGE('',*,*,#229,.F.);
#307=ORIENTED_EDGE('',*,*,#233,.F.);
#308=ORIENTED_EDGE('',*,*,#236,.F.);
#309=ORIENTED_EDGE('',*,*,#219,.T.);
#310=ORIENTED_EDGE('',*,*,#222,.T.);
#311=ORIENTED_EDGE('',*,*,#225,.T.);
#312=ORIENTED_EDGE('',*,*,#228,.T.);
#313=ORIENTED_EDGE('',*,*,#241,.T.);
#314=ORIENTED_EDGE('',*,*,#242,.T.);
#315=ORIENTED_EDGE('',*,*,#243,.F.);
#316=ORIENTED_EDGE('',*,*,#244,.F.);
#317=ORIENTED_EDGE('',*,*,#245,.T.);
#318=ORIENTED_EDGE('',*,*,#244,.T.);
#319=ORIENTED_EDGE('',*,*,#246,.F.);
#320=ORIENTED_EDGE('',*,*,#247,.F.);
#321=ORIENTED_EDGE('',*,*,#248,.T.);
#322=ORIENTED_EDGE('',*,*,#247,.T.);
#323=ORIENTED_EDGE('',*,*,#249,.F.);
#324=ORIENTED_EDGE('',*,*,#250,.F.);
#325=ORIENTED_EDGE('',*,*,#251,.T.);
#326=ORIENTED_EDGE('',*,*,#250,.T.);
#327=ORIENTED_EDGE('',*,*,#252,.F.);
#328=ORIENTED_EDGE('',*,*,#242,.F.);
#329=ORIENTED_EDGE('',*,*,#252,.T.);
#330=ORIENTED_EDGE('',*,*,#249,.T.);
#331=ORIENTED_EDGE('',*,*,#246,.T.);
#332=ORIENTED_EDGE('',*,*,#243,.T.);
#333=ORIENTED_EDGE('',*,*,#251,.F.);
#334=ORIENTED_EDGE('',*,*,#241,.F.);
#335=ORIENTED_EDGE('',*,*,#245,.F.);
#336=ORIENTED_EDGE('',*,*,#248,.F.);
#337=ORIENTED_EDGE('',*,*,#253,.F.);
#338=ORIENTED_EDGE('',*,*,#254,.T.);
#339=ORIENTED_EDGE('',*,*,#255,.F.);
#340=ORIENTED_EDGE('',*,*,#256,.F.);
#341=ORIENTED_EDGE('',*,*,#257,.F.);
#342=ORIENTED_EDGE('',*,*,#256,.T.);
#343=ORIENTED_EDGE('',*,*,#258,.F.);
#344=ORIENTED_EDGE('',*,*,#259,.F.);
#345=ORIENTED_EDGE('',*,*,#260,.F.);
#346=ORIENTED_EDGE('',*,*,#259,.T.);
#347=ORIENTED_EDGE('',*,*,#261,.F.);
#348=ORIENTED_EDGE('',*,*,#262,.F.);
#349=ORIENTED_EDGE('',*,*,#263,.F.);
#350=ORIENTED_EDGE('',*,*,#262,.T.);
#351=ORIENTED_EDGE('',*,*,#264,.F.);
#352=ORIENTED_EDGE('',*,*,#254,.F.);
#353=ORIENTED_EDGE('',*,*,#264,.T.);
#354=ORIENTED_EDGE('',*,*,#261,.T.);
#355=ORIENTED_EDGE('',*,*,#258,.T.);
#356=ORIENTED_EDGE('',*,*,#255,.T.);
#357=ORIENTED_EDGE('',*,*,#263,.T.);
#358=ORIENTED_EDGE('',*,*,#253,.T.);
#359=ORIENTED_EDGE('',*,*,#257,.T.);
#360=ORIENTED_EDGE('',*,*,#260,.T.);
#361=CYLINDRICAL_SURFACE('',#403,1.);
#362=CYLINDRICAL_SURFACE('',#406,1.);
#363=CYLINDRICAL_SURFACE('',#409,1.);
#364=CYLINDRICAL_SURFACE('',#412,1.);
#365=ADVANCED_FACE('',(#45),#361,.F.);
#366=ADVANCED_FACE('',(#46),#362,.F.);
#367=ADVANCED_FACE('',(#47),#363,.F.);
#368=ADVANCED_FACE('',(#48),#364,.F.);
#369=ADVANCED_FACE('',(#49),#27,.T.);
#370=ADVANCED_FACE('',(#50),#28,.T.);
#371=ADVANCED_FACE('',(#51),#29,.T.);
#372=ADVANCED_FACE('',(#52),#30,.T.);
#373=ADVANCED_FACE('',(#53,#19,#20,#21,#22),#31,.T.);
#374=ADVANCED_FACE('',(#54,#23,#24,#25,#26),#32,.F.);
#375=ADVANCED_FACE('',(#55),#33,.T.);
#376=ADVANCED_FACE('',(#56),#34,.T.);
#377=ADVANCED_FACE('',(#57),#35,.T.);
#378=ADVANCED_FACE('',(#58),#36,.T.);
#379=ADVANCED_FACE('',(#59),#37,.T.);
#380=ADVANCED_FACE('',(#60),#38,.F.);
#381=ADVANCED_FACE('',(#61),#39,.T.);
#382=ADVANCED_FACE('',(#62),#40,.T.);
#383=ADVANCED_FACE('',(#63),#41,.T.);
#384=ADVANCED_FACE('',(#64),#42,.T.);
#385=ADVANCED_FACE('',(#65),#43,.T.);
#386=ADVANCED_FACE('',(#66),#44,.F.);
#387=CLOSED_SHELL('',(#365,#366,#367,#368,#369,#370,#371,#372,#373,#374));
#388=CLOSED_SHELL('',(#375,#376,#377,#378,#379,#380));
#389=CLOSED_SHELL('',(#381,#382,#383,#384,#385,#386));
#390=DERIVED_UNIT_ELEMENT(#392,1.);
#391=DERIVED_UNIT_ELEMENT(#643,-3.);
#392=(
MASS_UNIT()
NAMED_UNIT(*)
SI_UNIT(.KILO.,.GRAM.)
);
#393=DERIVED_UNIT((#390,#391));
#394=MEASURE_REPRESENTATION_ITEM('density measure',
POSITIVE_RATIO_MEASURE(7850.),#393);
#395=PROPERTY_DEFINITION_REPRESENTATION(#400,#397);
#396=PROPERTY_DEFINITION_REPRESENTATION(#401,#398);
#397=REPRESENTATION('material name',(#399),#640);
#398=REPRESENTATION('density',(#394),#640);
#399=DESCRIPTIVE_REPRESENTATION_ITEM('Steel','Steel');
#400=PROPERTY_DEFINITION('material property','material name',#650);
#401=PROPERTY_DEFINITION('material property','density of part',#650);
#402=AXIS2_PLACEMENT_3D('',#535,#433,#434);
#403=AXIS2_PLACEMENT_3D('',#536,#435,#436);
#404=AXIS2_PLACEMENT_3D('',#538,#437,#438);
#405=AXIS2_PLACEMENT_3D('',#541,#440,#441);
#406=AXIS2_PLACEMENT_3D('',#542,#442,#443);
#407=AXIS2_PLACEMENT_3D('',#544,#444,#445);
#408=AXIS2_PLACEMENT_3D('',#547,#447,#448);
#409=AXIS2_PLACEMENT_3D('',#548,#449,#450);
#410=AXIS2_PLACEMENT_3D('',#550,#451,#452);
#411=AXIS2_PLACEMENT_3D('',#553,#454,#455);
#412=AXIS2_PLACEMENT_3D('',#554,#456,#457);
#413=AXIS2_PLACEMENT_3D('',#556,#458,#459);
#414=AXIS2_PLACEMENT_3D('',#559,#461,#462);
#415=AXIS2_PLACEMENT_3D('',#560,#463,#464);
#416=AXIS2_PLACEMENT_3D('',#569,#469,#470);
#417=AXIS2_PLACEMENT_3D('',#575,#474,#475);
#418=AXIS2_PLACEMENT_3D('',#581,#479,#480);
#419=AXIS2_PLACEMENT_3D('',#584,#483,#484);
#420=AXIS2_PLACEMENT_3D('',#585,#485,#486);
#421=AXIS2_PLACEMENT_3D('',#586,#487,#488);
#422=AXIS2_PLACEMENT_3D('',#595,#493,#494);
#423=AXIS2_PLACEMENT_3D('',#601,#498,#499);
#424=AXIS2_PLACEMENT_3D('',#607,#503,#504);
#425=AXIS2_PLACEMENT_3D('',#610,#507,#508);
#426=AXIS2_PLACEMENT_3D('',#611,#509,#510);
#427=AXIS2_PLACEMENT_3D('',#612,#511,#512);
#428=AXIS2_PLACEMENT_3D('',#621,#517,#518);
#429=AXIS2_PLACEMENT_3D('',#627,#522,#523);
#430=AXIS2_PLACEMENT_3D('',#633,#527,#528);
#431=AXIS2_PLACEMENT_3D('',#636,#531,#532);
#432=AXIS2_PLACEMENT_3D('',#637,#533,#534);
#433=DIRECTION('axis',(0.,0.,1.));
#434=DIRECTION('refdir',(1.,0.,0.));
#435=DIRECTION('center_axis',(0.,-1.,0.));
#436=DIRECTION('ref_axis',(0.,0.,1.));
#437=DIRECTION('center_axis',(0.,-1.,0.));
#438=DIRECTION('ref_axis',(0.,0.,1.));
#439=DIRECTION('',(0.,-1.,0.));
#440=DIRECTION('center_axis',(0.,1.,0.));
#441=DIRECTION('ref_axis',(0.,0.,1.));
#442=DIRECTION('center_axis',(0.,-1.,0.));
#443=DIRECTION('ref_axis',(0.,0.,1.));
#444=DIRECTION('center_axis',(0.,-1.,0.));
#445=DIRECTION('ref_axis',(0.,0.,1.));
#446=DIRECTION('',(0.,-1.,0.));
#447=DIRECTION('center_axis',(0.,1.,0.));
#448=DIRECTION('ref_axis',(0.,0.,1.));
#449=DIRECTION('center_axis',(0.,-1.,0.));
#450=DIRECTION('ref_axis',(0.,0.,1.));
#451=DIRECTION('center_axis',(0.,-1.,0.));
#452=DIRECTION('ref_axis',(0.,0.,1.));
#453=DIRECTION('',(0.,-1.,0.));
#454=DIRECTION('center_axis',(0.,1.,0.));
#455=DIRECTION('ref_axis',(0.,0.,1.));
#456=DIRECTION('center_axis',(0.,-1.,0.));
#457=DIRECTION('ref_axis',(0.,0.,1.));
#458=DIRECTION('center_axis',(0.,-1.,0.));
#459=DIRECTION('ref_axis',(0.,0.,1.));
#460=DIRECTION('',(0.,-1.,0.));
#461=DIRECTION('center_axis',(0.,1.,0.));
#462=DIRECTION('ref_axis',(0.,0.,1.));
#463=DIRECTION('center_axis',(0.,0.,1.));
#464=DIRECTION('ref_axis',(1.,0.,0.));
#465=DIRECTION('',(1.,0.,0.));
#466=DIRECTION('',(0.,1.,0.));
#467=DIRECTION('',(1.,0.,0.));
#468=DIRECTION('',(0.,1.,0.));
#469=DIRECTION('center_axis',(-1.,0.,0.));
#470=DIRECTION('ref_axis',(0.,0.,1.));
#471=DIRECTION('',(0.,0.,1.));
#472=DIRECTION('',(0.,0.,1.));
#473=DIRECTION('',(0.,1.,0.));
#474=DIRECTION('center_axis',(0.,0.,-1.));
#475=DIRECTION('ref_axis',(-1.,0.,0.));
#476=DIRECTION('',(-1.,0.,0.));
#477=DIRECTION('',(-1.,0.,0.));
#478=DIRECTION('',(0.,1.,0.));
#479=DIRECTION('center_axis',(1.,0.,0.));
#480=DIRECTION('ref_axis',(0.,0.,-1.));
#481=DIRECTION('',(0.,0.,-1.));
#482=DIRECTION('',(0.,0.,-1.));
#483=DIRECTION('center_axis',(0.,1.,0.));
#484=DIRECTION('ref_axis',(0.,0.,1.));
#485=DIRECTION('center_axis',(0.,1.,0.));
#486=DIRECTION('ref_axis',(1.,0.,0.));
#487=DIRECTION('center_axis',(0.,0.,1.));
#488=DIRECTION('ref_axis',(1.,0.,0.));
#489=DIRECTION('',(1.,0.,0.));
#490=DIRECTION('',(0.,1.,0.));
#491=DIRECTION('',(1.,0.,0.));
#492=DIRECTION('',(0.,1.,0.));
#493=DIRECTION('center_axis',(-1.,0.,0.));
#494=DIRECTION('ref_axis',(0.,0.,1.));
#495=DIRECTION('',(0.,0.,1.));
#496=DIRECTION('',(0.,0.,1.));
#497=DIRECTION('',(0.,1.,0.));
#498=DIRECTION('center_axis',(0.,0.,-1.));
#499=DIRECTION('ref_axis',(-1.,0.,0.));
#500=DIRECTION('',(-1.,0.,0.));
#501=DIRECTION('',(-1.,0.,0.));
#502=DIRECTION('',(0.,1.,0.));
#503=DIRECTION('center_axis',(1.,0.,0.));
#504=DIRECTION('ref_axis',(0.,0.,-1.));
#505=DIRECTION('',(0.,0.,-1.));
#506=DIRECTION('',(0.,0.,-1.));
#507=DIRECTION('center_axis',(0.,1.,0.));
#508=DIRECTION('ref_axis',(0.,0.,1.));
#509=DIRECTION('center_axis',(0.,1.,0.));
#510=DIRECTION('ref_axis',(-1.,0.,0.));
#511=DIRECTION('center_axis',(-1.,0.,0.));
#512=DIRECTION('ref_axis',(0.,0.,1.));
#513=DIRECTION('',(0.,0.,-1.));
#514=DIRECTION('',(0.,1.,0.));
#515=DIRECTION('',(0.,0.,1.));
#516=DIRECTION('',(0.,1.,0.));
#517=DIRECTION('center_axis',(0.,0.,-1.));
#518=DIRECTION('ref_axis',(-1.,0.,0.));
#519=DIRECTION('',(1.,0.,0.));
#520=DIRECTION('',(-1.,0.,0.));
#521=DIRECTION('',(0.,1.,0.));
#522=DIRECTION('center_axis',(1.,0.,0.));
#523=DIRECTION('ref_axis',(0.,0.,-1.));
#524=DIRECTION('',(0.,0.,1.));
#525=DIRECTION('',(0.,0.,-1.));
#526=DIRECTION('',(0.,1.,0.));
#527=DIRECTION('center_axis',(0.,0.,1.));
#528=DIRECTION('ref_axis',(1.,0.,0.));
#529=DIRECTION('',(-1.,0.,0.));
#530=DIRECTION('',(1.,0.,0.));
#531=DIRECTION('center_axis',(0.,1.,0.));
#532=DIRECTION('ref_axis',(0.,0.,1.));
#533=DIRECTION('center_axis',(0.,1.,0.));
#534=DIRECTION('ref_axis',(-1.,0.,0.));
#535=CARTESIAN_POINT('',(0.,0.,0.));
#536=CARTESIAN_POINT('Origin',(11.3,-0.75,11.3));
#537=CARTESIAN_POINT('',(11.3,1.,10.3));
#538=CARTESIAN_POINT('Origin',(11.3,1.,11.3));
#539=CARTESIAN_POINT('',(11.3,0.,10.3));
#540=CARTESIAN_POINT('',(11.3,-0.75,10.3));
#541=CARTESIAN_POINT('Origin',(11.3,0.,11.3));
#542=CARTESIAN_POINT('Origin',(-11.3,-0.75,11.3));
#543=CARTESIAN_POINT('',(-11.3,1.,10.3));
#544=CARTESIAN_POINT('Origin',(-11.3,1.,11.3));
#545=CARTESIAN_POINT('',(-11.3,0.,10.3));
#546=CARTESIAN_POINT('',(-11.3,-0.75,10.3));
#547=CARTESIAN_POINT('Origin',(-11.3,0.,11.3));
#548=CARTESIAN_POINT('Origin',(11.3,-0.75,-11.3));
#549=CARTESIAN_POINT('',(11.3,1.,-12.3));
#550=CARTESIAN_POINT('Origin',(11.3,1.,-11.3));
#551=CARTESIAN_POINT('',(11.3,0.,-12.3));
#552=CARTESIAN_POINT('',(11.3,-0.75,-12.3));
#553=CARTESIAN_POINT('Origin',(11.3,0.,-11.3));
#554=CARTESIAN_POINT('Origin',(-11.3,-0.75,-11.3));
#555=CARTESIAN_POINT('',(-11.3,1.,-12.3));
#556=CARTESIAN_POINT('Origin',(-11.3,1.,-11.3));
#557=CARTESIAN_POINT('',(-11.3,0.,-12.3));
#558=CARTESIAN_POINT('',(-11.3,-0.75,-12.3));
#559=CARTESIAN_POINT('Origin',(-11.3,0.,-11.3));
#560=CARTESIAN_POINT('Origin',(-13.,0.,13.));
#561=CARTESIAN_POINT('',(-13.,0.,13.));
#562=CARTESIAN_POINT('',(13.,0.,13.));
#563=CARTESIAN_POINT('',(-13.,0.,13.));
#564=CARTESIAN_POINT('',(13.,1.,13.));
#565=CARTESIAN_POINT('',(13.,0.,13.));
#566=CARTESIAN_POINT('',(-13.,1.,13.));
#567=CARTESIAN_POINT('',(-13.,1.,13.));
#568=CARTESIAN_POINT('',(-13.,0.,13.));
#569=CARTESIAN_POINT('Origin',(-13.,0.,-13.));
#570=CARTESIAN_POINT('',(-13.,0.,-13.));
#571=CARTESIAN_POINT('',(-13.,0.,-13.));
#572=CARTESIAN_POINT('',(-13.,1.,-13.));
#573=CARTESIAN_POINT('',(-13.,1.,-13.));
#574=CARTESIAN_POINT('',(-13.,0.,-13.));
#575=CARTESIAN_POINT('Origin',(13.,0.,-13.));
#576=CARTESIAN_POINT('',(13.,0.,-13.));
#577=CARTESIAN_POINT('',(13.,0.,-13.));
#578=CARTESIAN_POINT('',(13.,1.,-13.));
#579=CARTESIAN_POINT('',(13.,1.,-13.));
#580=CARTESIAN_POINT('',(13.,0.,-13.));
#581=CARTESIAN_POINT('Origin',(13.,0.,13.));
#582=CARTESIAN_POINT('',(13.,0.,13.));
#583=CARTESIAN_POINT('',(13.,1.,13.));
#584=CARTESIAN_POINT('Origin',(0.,1.,0.));
#585=CARTESIAN_POINT('Origin',(0.,0.,0.));
#586=CARTESIAN_POINT('Origin',(-12.25,1.,7.4));
#587=CARTESIAN_POINT('',(-12.25,1.,7.4));
#588=CARTESIAN_POINT('',(12.25,1.,7.4));
#589=CARTESIAN_POINT('',(-12.25,1.,7.4));
#590=CARTESIAN_POINT('',(12.25,2.3,7.4));
#591=CARTESIAN_POINT('',(12.25,1.,7.4));
#592=CARTESIAN_POINT('',(-12.25,2.3,7.4));
#593=CARTESIAN_POINT('',(-12.25,2.3,7.4));
#594=CARTESIAN_POINT('',(-12.25,1.,7.4));
#595=CARTESIAN_POINT('Origin',(-12.25,1.,-9.));
#596=CARTESIAN_POINT('',(-12.25,1.,-9.));
#597=CARTESIAN_POINT('',(-12.25,1.,-9.));
#598=CARTESIAN_POINT('',(-12.25,2.3,-9.));
#599=CARTESIAN_POINT('',(-12.25,2.3,-9.));
#600=CARTESIAN_POINT('',(-12.25,1.,-9.));
#601=CARTESIAN_POINT('Origin',(12.25,1.,-9.));
#602=CARTESIAN_POINT('',(12.25,1.,-9.));
#603=CARTESIAN_POINT('',(12.25,1.,-9.));
#604=CARTESIAN_POINT('',(12.25,2.3,-9.));
#605=CARTESIAN_POINT('',(12.25,2.3,-9.));
#606=CARTESIAN_POINT('',(12.25,1.,-9.));
#607=CARTESIAN_POINT('Origin',(12.25,1.,7.4));
#608=CARTESIAN_POINT('',(12.25,1.,7.4));
#609=CARTESIAN_POINT('',(12.25,2.3,7.4));
#610=CARTESIAN_POINT('Origin',(0.,2.3,-0.799999999999998));
#611=CARTESIAN_POINT('Origin',(0.,1.,-0.799999999999998));
#612=CARTESIAN_POINT('Origin',(-12.25,2.3,-9.));
#613=CARTESIAN_POINT('',(-12.25,2.3,4.5));
#614=CARTESIAN_POINT('',(-12.25,2.3,-9.));
#615=CARTESIAN_POINT('',(-12.25,2.3,4.5));
#616=CARTESIAN_POINT('',(-12.25,2.5,4.5));
#617=CARTESIAN_POINT('',(-12.25,2.3,4.5));
#618=CARTESIAN_POINT('',(-12.25,2.5,-9.));
#619=CARTESIAN_POINT('',(-12.25,2.5,4.5));
#620=CARTESIAN_POINT('',(-12.25,2.3,-9.));
#621=CARTESIAN_POINT('Origin',(12.25,2.3,-9.));
#622=CARTESIAN_POINT('',(12.25,2.3,-9.));
#623=CARTESIAN_POINT('',(-12.25,2.3,-9.));
#624=CARTESIAN_POINT('',(12.25,2.5,-9.));
#625=CARTESIAN_POINT('',(-12.25,2.5,-9.));
#626=CARTESIAN_POINT('',(12.25,2.3,-9.));
#627=CARTESIAN_POINT('Origin',(12.25,2.3,4.5));
#628=CARTESIAN_POINT('',(12.25,2.3,4.5));
#629=CARTESIAN_POINT('',(12.25,2.3,-9.));
#630=CARTESIAN_POINT('',(12.25,2.5,4.5));
#631=CARTESIAN_POINT('',(12.25,2.5,-9.));
#632=CARTESIAN_POINT('',(12.25,2.3,4.5));
#633=CARTESIAN_POINT('Origin',(-12.25,2.3,4.5));
#634=CARTESIAN_POINT('',(12.25,2.3,4.5));
#635=CARTESIAN_POINT('',(12.25,2.5,4.5));
#636=CARTESIAN_POINT('Origin',(0.,2.5,-2.25));
#637=CARTESIAN_POINT('Origin',(0.,2.3,-2.25));
#638=UNCERTAINTY_MEASURE_WITH_UNIT(LENGTH_MEASURE(0.01),#642,
'DISTANCE_ACCURACY_VALUE',
'Maximum model space distance between geometric entities at asserted c
onnectivities');
#639=UNCERTAINTY_MEASURE_WITH_UNIT(LENGTH_MEASURE(0.01),#642,
'DISTANCE_ACCURACY_VALUE',
'Maximum model space distance between geometric entities at asserted c
onnectivities');
#640=(
GEOMETRIC_REPRESENTATION_CONTEXT(3)
GLOBAL_UNCERTAINTY_ASSIGNED_CONTEXT((#638))
GLOBAL_UNIT_ASSIGNED_CONTEXT((#642,#644,#645))
REPRESENTATION_CONTEXT('','3D')
);
#641=(
GEOMETRIC_REPRESENTATION_CONTEXT(3)
GLOBAL_UNCERTAINTY_ASSIGNED_CONTEXT((#639))
GLOBAL_UNIT_ASSIGNED_CONTEXT((#642,#644,#645))
REPRESENTATION_CONTEXT('','3D')
);
#642=(
LENGTH_UNIT()
NAMED_UNIT(*)
SI_UNIT(.MILLI.,.METRE.)
);
#643=(
LENGTH_UNIT()
NAMED_UNIT(*)
SI_UNIT($,.METRE.)
);
#644=(
NAMED_UNIT(*)
PLANE_ANGLE_UNIT()
SI_UNIT($,.RADIAN.)
);
#645=(
NAMED_UNIT(*)
SI_UNIT($,.STERADIAN.)
SOLID_ANGLE_UNIT()
);
#646=SHAPE_DEFINITION_REPRESENTATION(#647,#648);
#647=PRODUCT_DEFINITION_SHAPE('',$,#650);
#648=SHAPE_REPRESENTATION('',(#402),#640);
#649=PRODUCT_DEFINITION_CONTEXT('part definition',#654,'design');
#650=PRODUCT_DEFINITION('2026-08-16-15-52-58-552','0.96 OLED Display',#651,
#649);
#651=PRODUCT_DEFINITION_FORMATION('',$,#656);
#652=PRODUCT_RELATED_PRODUCT_CATEGORY('0.96 OLED Display',
'0.96 OLED Display',(#656));
#653=APPLICATION_PROTOCOL_DEFINITION('international standard',
'automotive_design',2009,#654);
#654=APPLICATION_CONTEXT(
'Core Data for Automotive Mechanical Design Process');
#655=PRODUCT_CONTEXT('part definition',#654,'mechanical');
#656=PRODUCT('2026-08-16-15-52-58-552','0.96 OLED Display',$,(#655));
#657=PRESENTATION_STYLE_ASSIGNMENT((#660));
#658=PRESENTATION_STYLE_ASSIGNMENT((#661));
#659=PRESENTATION_STYLE_ASSIGNMENT((#662));
#660=SURFACE_STYLE_USAGE(.BOTH.,#663);
#661=SURFACE_STYLE_USAGE(.BOTH.,#664);
#662=SURFACE_STYLE_USAGE(.BOTH.,#665);
#663=SURFACE_SIDE_STYLE('',(#666));
#664=SURFACE_SIDE_STYLE('',(#667));
#665=SURFACE_SIDE_STYLE('',(#668));
#666=SURFACE_STYLE_FILL_AREA(#669);
#667=SURFACE_STYLE_FILL_AREA(#670);
#668=SURFACE_STYLE_FILL_AREA(#671);
#669=FILL_AREA_STYLE('Steel - Satin',(#672));
#670=FILL_AREA_STYLE('Paint - Enamel Glossy (Black)',(#673));
#671=FILL_AREA_STYLE('Glass (Blue)',(#674));
#672=FILL_AREA_STYLE_COLOUR('Steel - Satin',#675);
#673=FILL_AREA_STYLE_COLOUR('Paint - Enamel Glossy (Black)',#676);
#674=FILL_AREA_STYLE_COLOUR('Glass (Blue)',#677);
#675=COLOUR_RGB('Steel - Satin',0.627450980392157,0.627450980392157,0.627450980392157);
#676=COLOUR_RGB('Paint - Enamel Glossy (Black)',0.0980392156862745,0.0980392156862745,
0.0980392156862745);
#677=COLOUR_RGB('Glass (Blue)',0.188235294117647,0.231372549019608,0.588235294117647);
ENDSEC;
END-ISO-10303-21;
